<?xml version="1.0" encoding="utf-8" standalone="no"?>
<!DOCTYPE svg PUBLIC "-//W3C//DTD SVG 1.1//EN"
  "http://www.w3.org/Graphics/SVG/1.1/DTD/svg11.dtd">
<svg xmlns:xlink="http://www.w3.org/1999/xlink" width="460.8pt" height="345.6pt" viewBox="0 0 460.8 345.6" xmlns="http://www.w3.org/2000/svg" version="1.1">
 <metadata>
  <rdf:RDF xmlns:dc="http://purl.org/dc/elements/1.1/" xmlns:cc="http://creativecommons.org/ns#" xmlns:rdf="http://www.w3.org/1999/02/22-rdf-syntax-ns#">
   <cc:Work>
    <dc:type rdf:resource="http://purl.org/dc/dcmitype/StillImage"/>
    <dc:format>image/svg+xml</dc:format>
    <dc:creator>
     <cc:Agent>
      <dc:title>Matplotlib, https://matplotlib.org/</dc:title>
     </cc:Agent>
    </dc:creator>
   </cc:Work>
  </rdf:RDF>
 </metadata>
 <defs>
  <style type="text/css">*{stroke-linejoin: round; stroke-linecap: butt}</style>
 </defs>
 <g id="figure_1">
  <g id="patch_1">
   <path d="M 0 345.6 
L 460.8 345.6 
L 460.8 0 
L 0 0 
L 0 345.6 
z
" style="fill: none"/>
  </g>
  <g id="axes_1">
   <g id="patch_2">
    <path d="M 230.4 43.2 
C 223.610671 43.2 216.831826 43.733507 210.126085 44.795592 
C 203.420343 45.857678 196.808417 47.445062 190.351381 49.543081 
L 222.390276 148.148616 
C 223.681683 147.729012 225.004069 147.411536 226.345217 147.199118 
C 227.686365 146.986701 229.042134 146.88 230.4 146.88 
z
" style="fill: #36459c; fill-opacity: 0.75; stroke: #000000; stroke-width: 0.5; stroke-linejoin: miter"/>
   </g>
   <g id="patch_3">
    <path d="M 190.351377 49.54308 
C 169.263584 56.394921 150.282863 68.545276 135.231806 84.827421 
C 120.180748 101.109566 109.557037 120.985136 104.380852 142.54551 
C 99.204667 164.105885 99.647141 186.638142 105.665797 207.978678 
C 111.684452 229.319214 123.080284 248.762366 138.758978 264.441053 
C 154.437673 280.119739 173.880767 291.51554 195.221303 297.534196 
C 216.561838 303.552859 239.09416 303.995333 260.654532 298.81914 
C 282.214907 293.642947 302.090418 283.019267 318.372563 267.96821 
C 334.654708 252.917152 346.805087 233.936385 353.656928 212.848596 
L 255.051386 180.809719 
C 253.681017 185.027277 251.250942 188.82343 247.994513 191.833642 
C 244.738084 194.843853 240.762981 196.968589 236.450906 198.003828 
C 232.138832 199.039067 227.632368 198.950572 223.364261 197.746839 
C 219.096153 196.543108 215.207535 194.263948 212.071796 191.128211 
C 208.936057 187.992473 206.65689 184.103843 205.453159 179.835736 
C 204.249428 175.567628 204.160933 171.061177 205.19617 166.749102 
C 206.231407 162.437027 208.35615 158.461913 211.366361 155.205484 
C 214.376573 151.949055 218.172717 149.518984 222.390275 148.148616 
z
" style="fill: #d4edf4; fill-opacity: 0.75; stroke: #000000; stroke-width: 0.5; stroke-linejoin: miter"/>
   </g>
   <g id="patch_4">
    <path d="M 353.656928 212.848596 
C 358.916061 196.662636 360.935778 179.598135 359.600483 162.631675 
C 358.265188 145.665213 353.600861 129.12676 345.874423 113.96279 
C 338.147985 98.79882 327.509713 85.30424 314.568412 74.251342 
C 301.62711 63.198443 286.634483 54.802175 270.448519 49.543049 
L 238.409704 148.14861 
C 241.646897 149.200435 244.645422 150.879689 247.233682 153.090268 
C 249.821943 155.300848 251.949597 157.999764 253.494885 161.032558 
C 255.040172 164.065352 255.973038 167.373043 256.240097 170.766335 
C 256.507156 174.159627 256.103212 177.572527 255.051386 180.809719 
z
" style="fill: #ec5c3b; fill-opacity: 0.75; stroke: #000000; stroke-width: 0.5; stroke-linejoin: miter"/>
   </g>
   <g id="patch_5">
    <path d="M 270.448519 49.543049 
C 263.991502 47.445043 257.379592 45.857666 250.673871 44.795588 
C 243.96815 43.733511 237.189327 43.2 230.400018 43.2 
L 230.400004 146.88 
C 231.757865 146.88 233.11363 146.986702 234.454774 147.199118 
C 235.795918 147.411533 237.1183 147.729009 238.409704 148.14861 
z
" style="fill: #b10b26; fill-opacity: 0.75; stroke: #000000; stroke-width: 0.5; stroke-linejoin: miter"/>
   </g>
   <g id="patch_6">
    <path d="M 230.4 62.64 
C 224.62907 62.64 218.867052 63.093481 213.167172 63.996254 
C 207.467292 64.899026 201.847154 66.248303 196.358674 68.031619 
L 216.382983 129.660078 
C 218.642946 128.925772 220.95712 128.370187 223.30413 127.998457 
C 225.651139 127.626727 228.023735 127.44 230.4 127.44 
z
" style="fill: #36459c; fill-opacity: 0.75; stroke: #000000; stroke-width: 0.5; stroke-linejoin: miter"/>
   </g>
   <g id="patch_7">
    <path d="M 196.358671 68.031618 
C 190.870193 69.81493 185.530332 72.026782 180.388398 74.646727 
C 175.246467 77.266672 170.318333 80.286634 165.649558 83.6787 
L 203.738053 136.102994 
C 205.66049 134.706261 207.689722 133.462747 209.806987 132.383947 
C 211.924254 131.305146 214.123021 130.394383 216.382982 129.660078 
z
" style="fill: #4065ac; fill-opacity: 0.75; stroke: #000000; stroke-width: 0.5; stroke-linejoin: miter"/>
   </g>
   <g id="patch_8">
    <path d="M 165.649558 83.6787 
C 160.980776 87.070766 156.585759 90.824471 152.505099 94.905138 
C 148.424438 98.985805 144.670733 103.380822 141.278667 108.049604 
L 193.702981 146.138072 
C 195.099714 144.215633 196.645357 142.40592 198.325629 140.725645 
C 200.005901 139.04537 201.815614 137.499727 203.738053 136.102994 
z
" style="fill: #4f81ba; fill-opacity: 0.75; stroke: #000000; stroke-width: 0.5; stroke-linejoin: miter"/>
   </g>
   <g id="patch_9">
    <path d="M 141.278667 108.049604 
C 137.886601 112.718379 134.866659 117.646487 132.246714 122.788421 
C 129.626769 127.930355 127.414917 133.270233 125.631605 138.75871 
L 187.260073 158.782998 
C 187.994378 156.523037 188.90514 154.324264 189.983941 152.206997 
C 191.062742 150.08973 192.306248 148.060509 193.702981 146.138072 
z
" style="fill: #679ec9; fill-opacity: 0.75; stroke: #000000; stroke-width: 0.5; stroke-linejoin: miter"/>
   </g>
   <g id="patch_10">
    <path d="M 125.631605 138.75871 
C 123.848293 144.24719 122.499022 149.867328 121.59625 155.567208 
C 120.693478 161.267087 120.24 167.029106 120.24 172.800036 
L 185.04 172.800015 
C 185.04 170.42375 185.226726 168.051153 185.598456 165.704144 
C 185.970186 163.357135 186.525768 161.042961 187.260073 158.782998 
z
" style="fill: #81b7d7; fill-opacity: 0.75; stroke: #000000; stroke-width: 0.5; stroke-linejoin: miter"/>
   </g>
   <g id="patch_11">
    <path d="M 120.24 172.800036 
C 120.24 178.570965 120.693484 184.332984 121.596257 190.032863 
C 122.499029 195.732742 123.848312 201.352879 125.631631 206.841359 
L 187.260083 186.81703 
C 186.525776 184.557068 185.970188 182.242894 185.598459 179.895885 
C 185.226729 177.548876 185.04 175.17628 185.04 172.800015 
z
" style="fill: #9dcee3; fill-opacity: 0.75; stroke: #000000; stroke-width: 0.5; stroke-linejoin: miter"/>
   </g>
   <g id="patch_12">
    <path d="M 125.631631 206.841359 
C 127.41495 212.329839 129.626795 217.669711 132.246747 222.811645 
C 134.866699 227.953579 137.886654 232.8817 141.278726 237.550475 
L 193.703005 199.46196 
C 192.306269 197.539524 191.062758 195.510297 189.983955 193.39303 
C 188.905151 191.275763 187.994391 189.076993 187.260083 186.81703 
z
" style="fill: #b9e0ed; fill-opacity: 0.75; stroke: #000000; stroke-width: 0.5; stroke-linejoin: miter"/>
   </g>
   <g id="patch_13">
    <path d="M 141.278726 237.550475 
C 144.670799 242.21925 148.424497 246.614273 152.505164 250.694934 
C 156.585832 254.775595 160.980855 258.529293 165.649637 261.921359 
L 203.738086 209.49703 
C 201.815646 208.100297 200.005931 206.554657 198.325656 204.874385 
C 196.645381 203.194113 195.099741 201.384397 193.703005 199.46196 
z
" style="fill: #d1ecf4; fill-opacity: 0.75; stroke: #000000; stroke-width: 0.5; stroke-linejoin: miter"/>
   </g>
   <g id="patch_14">
    <path d="M 165.649637 261.921359 
C 170.318418 265.313425 175.246539 268.333374 180.38848 270.953319 
C 185.530418 273.573264 190.870295 275.785102 196.358776 277.568415 
L 216.383025 215.939935 
C 214.123063 215.20563 211.92429 214.294873 209.807021 213.216072 
C 207.689751 212.137272 205.660525 210.893763 203.738086 209.49703 
z
" style="fill: #e7f6eb; fill-opacity: 0.75; stroke: #000000; stroke-width: 0.5; stroke-linejoin: miter"/>
   </g>
   <g id="patch_15">
    <path d="M 196.358776 277.568415 
C 201.84725 279.35172 207.467405 280.700997 213.167278 281.603763 
C 218.867151 282.506529 224.629133 282.96 230.400054 282.96 
L 230.400022 218.16 
C 228.023761 218.16 225.65118 217.973277 223.304173 217.60155 
C 220.957167 217.229822 218.642985 216.674238 216.383025 215.939935 
z
" style="fill: #f7fcce; fill-opacity: 0.75; stroke: #000000; stroke-width: 0.5; stroke-linejoin: miter"/>
   </g>
   <g id="patch_16">
    <path d="M 230.400054 282.96 
C 236.170992 282.96 241.933046 282.506509 247.632934 281.60373 
C 253.332821 280.700951 258.952938 279.351674 264.441425 277.568349 
L 244.417057 215.939908 
C 242.157092 216.674219 239.842926 217.229803 237.495914 217.601536 
C 235.148901 217.973269 232.776291 218.16 230.400022 218.16 
z
" style="fill: #fff7b3; fill-opacity: 0.75; stroke: #000000; stroke-width: 0.5; stroke-linejoin: miter"/>
   </g>
   <g id="patch_17">
    <path d="M 264.441425 277.568349 
C 269.929902 275.78503 275.269776 273.573172 280.411707 270.95322 
C 285.553638 268.333269 290.481759 265.313307 295.150534 261.921234 
L 257.061985 209.496979 
C 255.139548 210.893715 253.110322 212.137228 250.993056 213.216032 
C 248.87579 214.294835 246.677018 215.205601 244.417057 215.939908 
z
" style="fill: #fee79b; fill-opacity: 0.75; stroke: #000000; stroke-width: 0.5; stroke-linejoin: miter"/>
   </g>
   <g id="patch_18">
    <path d="M 295.150534 261.921234 
C 299.819303 258.529168 304.214333 254.775444 308.294987 250.694783 
C 312.375641 246.614122 316.129306 242.219119 319.521366 237.550344 
L 267.097033 199.461906 
C 265.700302 201.384343 264.154676 203.19405 262.474406 204.874322 
C 260.794137 206.554595 258.984419 208.100246 257.061985 209.496979 
z
" style="fill: #fed485; fill-opacity: 0.75; stroke: #000000; stroke-width: 0.5; stroke-linejoin: miter"/>
   </g>
   <g id="patch_19">
    <path d="M 319.521366 237.550344 
C 322.913432 232.881562 325.93338 227.953441 328.553325 222.8115 
C 331.17327 217.669563 333.385109 212.329688 335.168421 206.841208 
L 273.539938 186.816968 
C 272.805633 189.076931 271.894876 191.275702 270.816075 193.392971 
C 269.737274 195.510241 268.493766 197.539467 267.097033 199.461906 
z
" style="fill: #fdbb6d; fill-opacity: 0.75; stroke: #000000; stroke-width: 0.5; stroke-linejoin: miter"/>
   </g>
   <g id="patch_20">
    <path d="M 335.168421 206.841208 
C 336.951727 201.352734 338.300991 195.732627 339.203757 190.032756 
C 340.106522 184.332884 340.56 178.570849 340.56 172.799928 
L 275.76 172.79997 
C 275.76 175.176232 275.573274 177.548835 275.201547 179.895841 
C 274.82982 182.242847 274.274241 184.557008 273.539938 186.816968 
z
" style="fill: #fb9d59; fill-opacity: 0.75; stroke: #000000; stroke-width: 0.5; stroke-linejoin: miter"/>
   </g>
   <g id="patch_21">
    <path d="M 340.56 172.799928 
C 340.559993 167.029007 340.106509 161.266972 339.203737 155.567101 
C 338.300964 149.86723 336.951688 144.247125 335.168375 138.758654 
L 273.539919 158.782975 
C 274.274224 161.042934 274.829809 163.357095 275.201539 165.7041 
C 275.573269 168.051106 275.759997 170.423709 275.76 172.79997 
z
" style="fill: #f67c4a; fill-opacity: 0.75; stroke: #000000; stroke-width: 0.5; stroke-linejoin: miter"/>
   </g>
   <g id="patch_22">
    <path d="M 335.168375 138.758654 
C 333.385063 133.270184 331.173231 127.930345 328.553286 122.788418 
C 325.933341 117.646487 322.913373 112.718353 319.521313 108.049578 
L 267.097011 146.138061 
C 268.493742 148.060498 269.737258 150.08973 270.816059 152.206995 
C 271.89486 154.32426 272.805614 156.523017 273.539919 158.782975 
z
" style="fill: #ec5c3b; fill-opacity: 0.75; stroke: #000000; stroke-width: 0.5; stroke-linejoin: miter"/>
   </g>
   <g id="patch_23">
    <path d="M 319.521313 108.049578 
C 316.129247 103.380796 312.375542 98.985779 308.294882 94.905118 
C 304.214221 90.824458 299.819198 87.070747 295.150416 83.67868 
L 257.061936 136.102986 
C 258.984375 137.499719 260.794091 139.045365 262.474363 140.725637 
C 264.154635 142.405909 265.700278 144.215622 267.097011 146.138061 
z
" style="fill: #dd3d2d; fill-opacity: 0.75; stroke: #000000; stroke-width: 0.5; stroke-linejoin: miter"/>
   </g>
   <g id="patch_24">
    <path d="M 295.150416 83.67868 
C 290.481647 80.286621 285.553546 77.266679 280.411628 74.64674 
C 275.269711 72.026802 269.929856 69.81495 264.441392 68.031638 
L 244.417044 129.660086 
C 246.676999 130.394391 248.875763 131.305154 250.993023 132.383952 
C 253.110284 133.46275 255.139502 134.706256 257.061936 136.102986 
z
" style="fill: #ca2427; fill-opacity: 0.75; stroke: #000000; stroke-width: 0.5; stroke-linejoin: miter"/>
   </g>
   <g id="patch_25">
    <path d="M 264.441392 68.031638 
C 258.952911 66.248319 253.332773 64.899042 247.632894 63.996263 
C 241.933015 63.093484 236.170997 62.640007 230.400068 62.64 
L 230.400028 127.44 
C 232.776293 127.440003 235.148888 127.626729 237.495898 127.998461 
C 239.842907 128.370194 242.157081 128.925778 244.417044 129.660086 
z
" style="fill: #b10b26; fill-opacity: 0.75; stroke: #000000; stroke-width: 0.5; stroke-linejoin: miter"/>
   </g>
   <g id="matplotlib.axis_1"/>
   <g id="matplotlib.axis_2"/>
   <g id="text_1">
    <!-- Critical -->
    <g transform="translate(172.109991 22.755401) scale(0.1 -0.1)">
     <defs>
      <path id="DejaVuSans-43" d="M 4122 4306 
L 4122 3641 
Q 3803 3938 3442 4084 
Q 3081 4231 2675 4231 
Q 1875 4231 1450 3742 
Q 1025 3253 1025 2328 
Q 1025 1406 1450 917 
Q 1875 428 2675 428 
Q 3081 428 3442 575 
Q 3803 722 4122 1019 
L 4122 359 
Q 3791 134 3420 21 
Q 3050 -91 2638 -91 
Q 1578 -91 968 557 
Q 359 1206 359 2328 
Q 359 3453 968 4101 
Q 1578 4750 2638 4750 
Q 3056 4750 3426 4639 
Q 3797 4528 4122 4306 
z
" transform="scale(0.015625)"/>
      <path id="DejaVuSans-72" d="M 2631 2963 
Q 2534 3019 2420 3045 
Q 2306 3072 2169 3072 
Q 1681 3072 1420 2755 
Q 1159 2438 1159 1844 
L 1159 0 
L 581 0 
L 581 3500 
L 1159 3500 
L 1159 2956 
Q 1341 3275 1631 3429 
Q 1922 3584 2338 3584 
Q 2397 3584 2469 3576 
Q 2541 3569 2628 3553 
L 2631 2963 
z
" transform="scale(0.015625)"/>
      <path id="DejaVuSans-69" d="M 603 3500 
L 1178 3500 
L 1178 0 
L 603 0 
L 603 3500 
z
M 603 4863 
L 1178 4863 
L 1178 4134 
L 603 4134 
L 603 4863 
z
" transform="scale(0.015625)"/>
      <path id="DejaVuSans-74" d="M 1172 4494 
L 1172 3500 
L 2356 3500 
L 2356 3053 
L 1172 3053 
L 1172 1153 
Q 1172 725 1289 603 
Q 1406 481 1766 481 
L 2356 481 
L 2356 0 
L 1766 0 
Q 1100 0 847 248 
Q 594 497 594 1153 
L 594 3053 
L 172 3053 
L 172 3500 
L 594 3500 
L 594 4494 
L 1172 4494 
z
" transform="scale(0.015625)"/>
      <path id="DejaVuSans-63" d="M 3122 3366 
L 3122 2828 
Q 2878 2963 2633 3030 
Q 2388 3097 2138 3097 
Q 1578 3097 1268 2742 
Q 959 2388 959 1747 
Q 959 1106 1268 751 
Q 1578 397 2138 397 
Q 2388 397 2633 464 
Q 2878 531 3122 666 
L 3122 134 
Q 2881 22 2623 -34 
Q 2366 -91 2075 -91 
Q 1284 -91 818 406 
Q 353 903 353 1747 
Q 353 2603 823 3093 
Q 1294 3584 2113 3584 
Q 2378 3584 2631 3529 
Q 2884 3475 3122 3366 
z
" transform="scale(0.015625)"/>
      <path id="DejaVuSans-61" d="M 2194 1759 
Q 1497 1759 1228 1600 
Q 959 1441 959 1056 
Q 959 750 1161 570 
Q 1363 391 1709 391 
Q 2188 391 2477 730 
Q 2766 1069 2766 1631 
L 2766 1759 
L 2194 1759 
z
M 3341 1997 
L 3341 0 
L 2766 0 
L 2766 531 
Q 2569 213 2275 61 
Q 1981 -91 1556 -91 
Q 1019 -91 701 211 
Q 384 513 384 1019 
Q 384 1609 779 1909 
Q 1175 2209 1959 2209 
L 2766 2209 
L 2766 2266 
Q 2766 2663 2505 2880 
Q 2244 3097 1772 3097 
Q 1472 3097 1187 3025 
Q 903 2953 641 2809 
L 641 3341 
Q 956 3463 1253 3523 
Q 1550 3584 1831 3584 
Q 2591 3584 2966 3190 
Q 3341 2797 3341 1997 
z
" transform="scale(0.015625)"/>
      <path id="DejaVuSans-6c" d="M 603 4863 
L 1178 4863 
L 1178 0 
L 603 0 
L 603 4863 
z
" transform="scale(0.015625)"/>
     </defs>
     <use xlink:href="#DejaVuSans-43"/>
     <use xlink:href="#DejaVuSans-72" transform="translate(69.824219 0)"/>
     <use xlink:href="#DejaVuSans-69" transform="translate(110.9375 0)"/>
     <use xlink:href="#DejaVuSans-74" transform="translate(138.720703 0)"/>
     <use xlink:href="#DejaVuSans-69" transform="translate(177.929688 0)"/>
     <use xlink:href="#DejaVuSans-63" transform="translate(205.712891 0)"/>
     <use xlink:href="#DejaVuSans-61" transform="translate(260.693359 0)"/>
     <use xlink:href="#DejaVuSans-6c" transform="translate(321.972656 0)"/>
    </g>
    <!-- Failure -->
    <g transform="translate(174.184991 33.953213) scale(0.1 -0.1)">
     <defs>
      <path id="DejaVuSans-46" d="M 628 4666 
L 3309 4666 
L 3309 4134 
L 1259 4134 
L 1259 2759 
L 3109 2759 
L 3109 2228 
L 1259 2228 
L 1259 0 
L 628 0 
L 628 4666 
z
" transform="scale(0.015625)"/>
      <path id="DejaVuSans-75" d="M 544 1381 
L 544 3500 
L 1119 3500 
L 1119 1403 
Q 1119 906 1312 657 
Q 1506 409 1894 409 
Q 2359 409 2629 706 
Q 2900 1003 2900 1516 
L 2900 3500 
L 3475 3500 
L 3475 0 
L 2900 0 
L 2900 538 
Q 2691 219 2414 64 
Q 2138 -91 1772 -91 
Q 1169 -91 856 284 
Q 544 659 544 1381 
z
M 1991 3584 
L 1991 3584 
z
" transform="scale(0.015625)"/>
      <path id="DejaVuSans-65" d="M 3597 1894 
L 3597 1613 
L 953 1613 
Q 991 1019 1311 708 
Q 1631 397 2203 397 
Q 2534 397 2845 478 
Q 3156 559 3463 722 
L 3463 178 
Q 3153 47 2828 -22 
Q 2503 -91 2169 -91 
Q 1331 -91 842 396 
Q 353 884 353 1716 
Q 353 2575 817 3079 
Q 1281 3584 2069 3584 
Q 2775 3584 3186 3129 
Q 3597 2675 3597 1894 
z
M 3022 2063 
Q 3016 2534 2758 2815 
Q 2500 3097 2075 3097 
Q 1594 3097 1305 2825 
Q 1016 2553 972 2059 
L 3022 2063 
z
" transform="scale(0.015625)"/>
     </defs>
     <use xlink:href="#DejaVuSans-46"/>
     <use xlink:href="#DejaVuSans-61" transform="translate(48.394531 0)"/>
     <use xlink:href="#DejaVuSans-69" transform="translate(109.673828 0)"/>
     <use xlink:href="#DejaVuSans-6c" transform="translate(137.457031 0)"/>
     <use xlink:href="#DejaVuSans-75" transform="translate(165.240234 0)"/>
     <use xlink:href="#DejaVuSans-72" transform="translate(228.619141 0)"/>
     <use xlink:href="#DejaVuSans-65" transform="translate(267.482422 0)"/>
    </g>
   </g>
   <g id="text_2">
    <!-- Failure -->
    <g transform="translate(92.112823 280.946587) scale(0.1 -0.1)">
     <use xlink:href="#DejaVuSans-46"/>
     <use xlink:href="#DejaVuSans-61" transform="translate(48.394531 0)"/>
     <use xlink:href="#DejaVuSans-69" transform="translate(109.673828 0)"/>
     <use xlink:href="#DejaVuSans-6c" transform="translate(137.457031 0)"/>
     <use xlink:href="#DejaVuSans-75" transform="translate(165.240234 0)"/>
     <use xlink:href="#DejaVuSans-72" transform="translate(228.619141 0)"/>
     <use xlink:href="#DejaVuSans-65" transform="translate(267.482422 0)"/>
    </g>
   </g>
   <g id="text_3">
    <!-- Success -->
    <g transform="translate(363.195588 107.896582) scale(0.1 -0.1)">
     <defs>
      <path id="DejaVuSans-53" d="M 3425 4513 
L 3425 3897 
Q 3066 4069 2747 4153 
Q 2428 4238 2131 4238 
Q 1616 4238 1336 4038 
Q 1056 3838 1056 3469 
Q 1056 3159 1242 3001 
Q 1428 2844 1947 2747 
L 2328 2669 
Q 3034 2534 3370 2195 
Q 3706 1856 3706 1288 
Q 3706 609 3251 259 
Q 2797 -91 1919 -91 
Q 1588 -91 1214 -16 
Q 841 59 441 206 
L 441 856 
Q 825 641 1194 531 
Q 1563 422 1919 422 
Q 2459 422 2753 634 
Q 3047 847 3047 1241 
Q 3047 1584 2836 1778 
Q 2625 1972 2144 2069 
L 1759 2144 
Q 1053 2284 737 2584 
Q 422 2884 422 3419 
Q 422 4038 858 4394 
Q 1294 4750 2059 4750 
Q 2388 4750 2728 4690 
Q 3069 4631 3425 4513 
z
" transform="scale(0.015625)"/>
      <path id="DejaVuSans-73" d="M 2834 3397 
L 2834 2853 
Q 2591 2978 2328 3040 
Q 2066 3103 1784 3103 
Q 1356 3103 1142 2972 
Q 928 2841 928 2578 
Q 928 2378 1081 2264 
Q 1234 2150 1697 2047 
L 1894 2003 
Q 2506 1872 2764 1633 
Q 3022 1394 3022 966 
Q 3022 478 2636 193 
Q 2250 -91 1575 -91 
Q 1294 -91 989 -36 
Q 684 19 347 128 
L 347 722 
Q 666 556 975 473 
Q 1284 391 1588 391 
Q 1994 391 2212 530 
Q 2431 669 2431 922 
Q 2431 1156 2273 1281 
Q 2116 1406 1581 1522 
L 1381 1569 
Q 847 1681 609 1914 
Q 372 2147 372 2553 
Q 372 3047 722 3315 
Q 1072 3584 1716 3584 
Q 2034 3584 2315 3537 
Q 2597 3491 2834 3397 
z
" transform="scale(0.015625)"/>
     </defs>
     <use xlink:href="#DejaVuSans-53"/>
     <use xlink:href="#DejaVuSans-75" transform="translate(63.476562 0)"/>
     <use xlink:href="#DejaVuSans-63" transform="translate(126.855469 0)"/>
     <use xlink:href="#DejaVuSans-63" transform="translate(181.835938 0)"/>
     <use xlink:href="#DejaVuSans-65" transform="translate(236.816406 0)"/>
     <use xlink:href="#DejaVuSans-73" transform="translate(298.339844 0)"/>
     <use xlink:href="#DejaVuSans-73" transform="translate(350.439453 0)"/>
    </g>
   </g>
   <g id="text_4">
    <!-- Critical -->
    <g transform="translate(253.714952 22.755392) scale(0.1 -0.1)">
     <use xlink:href="#DejaVuSans-43"/>
     <use xlink:href="#DejaVuSans-72" transform="translate(69.824219 0)"/>
     <use xlink:href="#DejaVuSans-69" transform="translate(110.9375 0)"/>
     <use xlink:href="#DejaVuSans-74" transform="translate(138.720703 0)"/>
     <use xlink:href="#DejaVuSans-69" transform="translate(177.929688 0)"/>
     <use xlink:href="#DejaVuSans-63" transform="translate(205.712891 0)"/>
     <use xlink:href="#DejaVuSans-61" transform="translate(260.693359 0)"/>
     <use xlink:href="#DejaVuSans-6c" transform="translate(321.972656 0)"/>
    </g>
    <!-- Success -->
    <g transform="translate(253.714952 33.953205) scale(0.1 -0.1)">
     <use xlink:href="#DejaVuSans-53"/>
     <use xlink:href="#DejaVuSans-75" transform="translate(63.476562 0)"/>
     <use xlink:href="#DejaVuSans-63" transform="translate(126.855469 0)"/>
     <use xlink:href="#DejaVuSans-63" transform="translate(181.835938 0)"/>
     <use xlink:href="#DejaVuSans-65" transform="translate(236.816406 0)"/>
     <use xlink:href="#DejaVuSans-73" transform="translate(298.339844 0)"/>
     <use xlink:href="#DejaVuSans-73" transform="translate(350.439453 0)"/>
    </g>
   </g>
   <g id="text_5">
    <!-- 1 -->
    <g transform="translate(211.974517 99.396753) scale(0.1 -0.1)">
     <defs>
      <path id="DejaVuSans-31" d="M 794 531 
L 1825 531 
L 1825 4091 
L 703 3866 
L 703 4441 
L 1819 4666 
L 2450 4666 
L 2450 531 
L 3481 531 
L 3481 0 
L 794 0 
L 794 531 
z
" transform="scale(0.015625)"/>
     </defs>
     <use xlink:href="#DejaVuSans-31"/>
    </g>
   </g>
   <g id="text_6">
    <!-- 2 -->
    <g transform="translate(189.029377 106.852084) scale(0.1 -0.1)">
     <defs>
      <path id="DejaVuSans-32" d="M 1228 531 
L 3431 531 
L 3431 0 
L 469 0 
L 469 531 
Q 828 903 1448 1529 
Q 2069 2156 2228 2338 
Q 2531 2678 2651 2914 
Q 2772 3150 2772 3378 
Q 2772 3750 2511 3984 
Q 2250 4219 1831 4219 
Q 1534 4219 1204 4116 
Q 875 4013 500 3803 
L 500 4441 
Q 881 4594 1212 4672 
Q 1544 4750 1819 4750 
Q 2544 4750 2975 4387 
Q 3406 4025 3406 3419 
Q 3406 3131 3298 2873 
Q 3191 2616 2906 2266 
Q 2828 2175 2409 1742 
Q 1991 1309 1228 531 
z
" transform="scale(0.015625)"/>
     </defs>
     <use xlink:href="#DejaVuSans-32"/>
    </g>
   </g>
   <g id="text_7">
    <!-- 3 -->
    <g transform="translate(169.511069 121.03297) scale(0.1 -0.1)">
     <defs>
      <path id="DejaVuSans-33" d="M 2597 2516 
Q 3050 2419 3304 2112 
Q 3559 1806 3559 1356 
Q 3559 666 3084 287 
Q 2609 -91 1734 -91 
Q 1441 -91 1130 -33 
Q 819 25 488 141 
L 488 750 
Q 750 597 1062 519 
Q 1375 441 1716 441 
Q 2309 441 2620 675 
Q 2931 909 2931 1356 
Q 2931 1769 2642 2001 
Q 2353 2234 1838 2234 
L 1294 2234 
L 1294 2753 
L 1863 2753 
Q 2328 2753 2575 2939 
Q 2822 3125 2822 3475 
Q 2822 3834 2567 4026 
Q 2313 4219 1838 4219 
Q 1578 4219 1281 4162 
Q 984 4106 628 3988 
L 628 4550 
Q 988 4650 1302 4700 
Q 1616 4750 1894 4750 
Q 2613 4750 3031 4423 
Q 3450 4097 3450 3541 
Q 3450 3153 3228 2886 
Q 3006 2619 2597 2516 
z
" transform="scale(0.015625)"/>
     </defs>
     <use xlink:href="#DejaVuSans-33"/>
    </g>
   </g>
   <g id="text_8">
    <!-- 4 -->
    <g transform="translate(155.330192 140.551285) scale(0.1 -0.1)">
     <defs>
      <path id="DejaVuSans-34" d="M 2419 4116 
L 825 1625 
L 2419 1625 
L 2419 4116 
z
M 2253 4666 
L 3047 4666 
L 3047 1625 
L 3713 1625 
L 3713 1100 
L 3047 1100 
L 3047 0 
L 2419 0 
L 2419 1100 
L 313 1100 
L 313 1709 
L 2253 4666 
z
" transform="scale(0.015625)"/>
     </defs>
     <use xlink:href="#DejaVuSans-34"/>
    </g>
   </g>
   <g id="text_9">
    <!-- 5 -->
    <g transform="translate(147.874871 163.496439) scale(0.1 -0.1)">
     <defs>
      <path id="DejaVuSans-35" d="M 691 4666 
L 3169 4666 
L 3169 4134 
L 1269 4134 
L 1269 2991 
Q 1406 3038 1543 3061 
Q 1681 3084 1819 3084 
Q 2600 3084 3056 2656 
Q 3513 2228 3513 1497 
Q 3513 744 3044 326 
Q 2575 -91 1722 -91 
Q 1428 -91 1123 -41 
Q 819 9 494 109 
L 494 744 
Q 775 591 1075 516 
Q 1375 441 1709 441 
Q 2250 441 2565 725 
Q 2881 1009 2881 1497 
Q 2881 1984 2565 2268 
Q 2250 2553 1709 2553 
Q 1456 2553 1204 2497 
Q 953 2441 691 2322 
L 691 4666 
z
" transform="scale(0.015625)"/>
     </defs>
     <use xlink:href="#DejaVuSans-35"/>
    </g>
   </g>
   <g id="text_10">
    <!-- 6 -->
    <g transform="translate(147.874884 187.622397) scale(0.1 -0.1)">
     <defs>
      <path id="DejaVuSans-36" d="M 2113 2584 
Q 1688 2584 1439 2293 
Q 1191 2003 1191 1497 
Q 1191 994 1439 701 
Q 1688 409 2113 409 
Q 2538 409 2786 701 
Q 3034 994 3034 1497 
Q 3034 2003 2786 2293 
Q 2538 2584 2113 2584 
z
M 3366 4563 
L 3366 3988 
Q 3128 4100 2886 4159 
Q 2644 4219 2406 4219 
Q 1781 4219 1451 3797 
Q 1122 3375 1075 2522 
Q 1259 2794 1537 2939 
Q 1816 3084 2150 3084 
Q 2853 3084 3261 2657 
Q 3669 2231 3669 1497 
Q 3669 778 3244 343 
Q 2819 -91 2113 -91 
Q 1303 -91 875 529 
Q 447 1150 447 2328 
Q 447 3434 972 4092 
Q 1497 4750 2381 4750 
Q 2619 4750 2861 4703 
Q 3103 4656 3366 4563 
z
" transform="scale(0.015625)"/>
     </defs>
     <use xlink:href="#DejaVuSans-36"/>
    </g>
   </g>
   <g id="text_11">
    <!-- 7 -->
    <g transform="translate(155.330223 210.567526) scale(0.1 -0.1)">
     <defs>
      <path id="DejaVuSans-37" d="M 525 4666 
L 3525 4666 
L 3525 4397 
L 1831 0 
L 1172 0 
L 2766 4134 
L 525 4134 
L 525 4666 
z
" transform="scale(0.015625)"/>
     </defs>
     <use xlink:href="#DejaVuSans-37"/>
    </g>
   </g>
   <g id="text_12">
    <!-- 8 -->
    <g transform="translate(169.51113 230.085841) scale(0.1 -0.1)">
     <defs>
      <path id="DejaVuSans-38" d="M 2034 2216 
Q 1584 2216 1326 1975 
Q 1069 1734 1069 1313 
Q 1069 891 1326 650 
Q 1584 409 2034 409 
Q 2484 409 2743 651 
Q 3003 894 3003 1313 
Q 3003 1734 2745 1975 
Q 2488 2216 2034 2216 
z
M 1403 2484 
Q 997 2584 770 2862 
Q 544 3141 544 3541 
Q 544 4100 942 4425 
Q 1341 4750 2034 4750 
Q 2731 4750 3128 4425 
Q 3525 4100 3525 3541 
Q 3525 3141 3298 2862 
Q 3072 2584 2669 2484 
Q 3125 2378 3379 2068 
Q 3634 1759 3634 1313 
Q 3634 634 3220 271 
Q 2806 -91 2034 -91 
Q 1263 -91 848 271 
Q 434 634 434 1313 
Q 434 1759 690 2068 
Q 947 2378 1403 2484 
z
M 1172 3481 
Q 1172 3119 1398 2916 
Q 1625 2713 2034 2713 
Q 2441 2713 2670 2916 
Q 2900 3119 2900 3481 
Q 2900 3844 2670 4047 
Q 2441 4250 2034 4250 
Q 1625 4250 1398 4047 
Q 1172 3844 1172 3481 
z
" transform="scale(0.015625)"/>
     </defs>
     <use xlink:href="#DejaVuSans-38"/>
    </g>
   </g>
   <g id="text_13">
    <!-- 9 -->
    <g transform="translate(189.029438 244.266697) scale(0.1 -0.1)">
     <defs>
      <path id="DejaVuSans-39" d="M 703 97 
L 703 672 
Q 941 559 1184 500 
Q 1428 441 1663 441 
Q 2288 441 2617 861 
Q 2947 1281 2994 2138 
Q 2813 1869 2534 1725 
Q 2256 1581 1919 1581 
Q 1219 1581 811 2004 
Q 403 2428 403 3163 
Q 403 3881 828 4315 
Q 1253 4750 1959 4750 
Q 2769 4750 3195 4129 
Q 3622 3509 3622 2328 
Q 3622 1225 3098 567 
Q 2575 -91 1691 -91 
Q 1453 -91 1209 -44 
Q 966 3 703 97 
z
M 1959 2075 
Q 2384 2075 2632 2365 
Q 2881 2656 2881 3163 
Q 2881 3666 2632 3958 
Q 2384 4250 1959 4250 
Q 1534 4250 1286 3958 
Q 1038 3666 1038 3163 
Q 1038 2656 1286 2365 
Q 1534 2075 1959 2075 
z
" transform="scale(0.015625)"/>
     </defs>
     <use xlink:href="#DejaVuSans-39"/>
    </g>
   </g>
   <g id="text_14">
    <!-- 10 -->
    <g transform="translate(205.612094 251.722009) scale(0.1 -0.1)">
     <defs>
      <path id="DejaVuSans-30" d="M 2034 4250 
Q 1547 4250 1301 3770 
Q 1056 3291 1056 2328 
Q 1056 1369 1301 889 
Q 1547 409 2034 409 
Q 2525 409 2770 889 
Q 3016 1369 3016 2328 
Q 3016 3291 2770 3770 
Q 2525 4250 2034 4250 
z
M 2034 4750 
Q 2819 4750 3233 4129 
Q 3647 3509 3647 2328 
Q 3647 1150 3233 529 
Q 2819 -91 2034 -91 
Q 1250 -91 836 529 
Q 422 1150 422 2328 
Q 422 3509 836 4129 
Q 1250 4750 2034 4750 
z
" transform="scale(0.015625)"/>
     </defs>
     <use xlink:href="#DejaVuSans-31"/>
     <use xlink:href="#DejaVuSans-30" transform="translate(63.623047 0)"/>
    </g>
   </g>
   <g id="text_15">
    <!-- 11 -->
    <g transform="translate(242.463017 251.721992) scale(0.1 -0.1)">
     <use xlink:href="#DejaVuSans-31"/>
     <use xlink:href="#DejaVuSans-31" transform="translate(63.623047 0)"/>
    </g>
   </g>
   <g id="text_16">
    <!-- 12 -->
    <g transform="translate(265.408195 244.26663) scale(0.1 -0.1)">
     <use xlink:href="#DejaVuSans-31"/>
     <use xlink:href="#DejaVuSans-32" transform="translate(63.623047 0)"/>
    </g>
   </g>
   <g id="text_17">
    <!-- 13 -->
    <g transform="translate(284.926462 230.085749) scale(0.1 -0.1)">
     <use xlink:href="#DejaVuSans-31"/>
     <use xlink:href="#DejaVuSans-33" transform="translate(63.623047 0)"/>
    </g>
   </g>
   <g id="text_18">
    <!-- 14 -->
    <g transform="translate(299.107345 210.567393) scale(0.1 -0.1)">
     <use xlink:href="#DejaVuSans-31"/>
     <use xlink:href="#DejaVuSans-34" transform="translate(63.623047 0)"/>
    </g>
   </g>
   <g id="text_19">
    <!-- 15 -->
    <g transform="translate(306.562636 187.622268) scale(0.1 -0.1)">
     <use xlink:href="#DejaVuSans-31"/>
     <use xlink:href="#DejaVuSans-35" transform="translate(63.623047 0)"/>
    </g>
   </g>
   <g id="text_20">
    <!-- 16 -->
    <g transform="translate(306.562615 163.496346) scale(0.1 -0.1)">
     <use xlink:href="#DejaVuSans-31"/>
     <use xlink:href="#DejaVuSans-36" transform="translate(63.623047 0)"/>
    </g>
   </g>
   <g id="text_21">
    <!-- 17 -->
    <g transform="translate(299.107282 140.551234) scale(0.1 -0.1)">
     <use xlink:href="#DejaVuSans-31"/>
     <use xlink:href="#DejaVuSans-37" transform="translate(63.623047 0)"/>
    </g>
   </g>
   <g id="text_22">
    <!-- 18 -->
    <g transform="translate(284.926417 121.032956) scale(0.1 -0.1)">
     <use xlink:href="#DejaVuSans-31"/>
     <use xlink:href="#DejaVuSans-38" transform="translate(63.623047 0)"/>
    </g>
   </g>
   <g id="text_23">
    <!-- 19 -->
    <g transform="translate(265.408138 106.852091) scale(0.1 -0.1)">
     <use xlink:href="#DejaVuSans-31"/>
     <use xlink:href="#DejaVuSans-39" transform="translate(63.623047 0)"/>
    </g>
   </g>
   <g id="text_24">
    <!-- 20 -->
    <g transform="translate(242.46299 99.396754) scale(0.1 -0.1)">
     <use xlink:href="#DejaVuSans-32"/>
     <use xlink:href="#DejaVuSans-30" transform="translate(63.623047 0)"/>
    </g>
   </g>
  </g>
 </g>
</svg>
