<?xml version="1.0" encoding="utf-8" standalone="no"?>
<!DOCTYPE svg PUBLIC "-//W3C//DTD SVG 1.1//EN"
  "http://www.w3.org/Graphics/SVG/1.1/DTD/svg11.dtd">
<svg xmlns:xlink="http://www.w3.org/1999/xlink" width="691.2pt" height="691.2pt" viewBox="0 0 691.2 691.2" xmlns="http://www.w3.org/2000/svg" version="1.1">
 <metadata>
  <rdf:RDF xmlns:dc="http://purl.org/dc/elements/1.1/" xmlns:cc="http://creativecommons.org/ns#" xmlns:rdf="http://www.w3.org/1999/02/22-rdf-syntax-ns#">
   <cc:Work>
    <dc:type rdf:resource="http://purl.org/dc/dcmitype/StillImage"/>
    <dc:format>image/svg+xml</dc:format>
    <dc:creator>
     <cc:Agent>
      <dc:title>Matplotlib, https://matplotlib.org/</dc:title>
     </cc:Agent>
    </dc:creator>
   </cc:Work>
  </rdf:RDF>
 </metadata>
 <defs>
  <style type="text/css">*{stroke-linejoin: round; stroke-linecap: butt}</style>
 </defs>
 <g id="figure_1">
  <g id="patch_1">
   <path d="M 0 691.2 
L 691.2 691.2 
L 691.2 0 
L 0 0 
L 0 691.2 
z
" style="fill: none"/>
  </g>
  <g id="axes_1">
   <g id="patch_2">
    <path d="M 355.49 89.4892 
C 354.196979 89.4892 352.904044 89.510357 351.611715 89.552664 
C 350.319387 89.59497 349.027837 89.65842 347.737584 89.742988 
L 353.939517 184.366198 
C 354.197567 184.349284 354.455877 184.336594 354.714343 184.328133 
C 354.972809 184.319671 355.231396 184.31544 355.49 184.31544 
z
" style="fill: #00451c; fill-opacity: 0.8"/>
   </g>
   <g id="patch_3">
    <path d="M 347.73758 89.742986 
C 345.156903 89.912131 342.582452 90.165691 340.018362 90.503262 
C 337.454273 90.840832 334.901919 91.262231 332.365398 91.766778 
L 350.86508 184.770956 
C 351.372384 184.670046 351.882855 184.585766 352.395672 184.518252 
C 352.90849 184.450738 353.423381 184.400026 353.939516 184.366197 
z
" style="fill: #004a1e; fill-opacity: 0.8"/>
   </g>
   <g id="patch_4">
    <path d="M 332.365398 91.766778 
C 328.560192 92.523684 324.794438 93.466946 321.081743 94.593181 
C 317.369047 95.719415 313.71389 97.027251 310.129466 98.511968 
L 346.417893 186.119994 
C 347.134778 185.82305 347.865809 185.561483 348.608349 185.336236 
C 349.350888 185.110989 350.104038 184.922337 350.86508 184.770956 
z
" style="fill: #005321; fill-opacity: 0.8"/>
   </g>
   <g id="patch_5">
    <path d="M 310.129466 98.511968 
C 305.349484 100.491901 300.704247 102.782676 296.223593 105.369586 
C 291.742938 107.956495 287.43646 110.833993 283.331796 113.98361 
L 341.058359 189.214322 
C 341.879292 188.584399 342.740588 188.008899 343.636719 187.491517 
C 344.532849 186.974135 345.461897 186.51598 346.417893 186.119994 
z
" style="fill: #005f26; fill-opacity: 0.8"/>
   </g>
   <g id="patch_6">
    <path d="M 283.331796 113.98361 
C 278.199937 117.921424 273.399042 122.272709 268.977176 126.993881 
C 264.555311 131.715053 260.527317 136.790293 256.933574 142.16871 
L 335.778715 194.851342 
C 336.497463 193.775659 337.303062 192.760611 338.187435 191.816376 
C 339.071808 190.872142 340.031987 190.001885 341.058359 189.214322 
z
" style="fill: #016e2d; fill-opacity: 0.8"/>
   </g>
   <g id="patch_7">
    <path d="M 256.933574 142.16871 
C 252.62003 148.624387 248.951184 155.488313 245.979961 162.66148 
C 243.008738 169.834646 240.749487 177.282408 239.234771 184.897399 
L 332.238954 203.39708 
C 332.541897 201.874082 332.993748 200.384529 333.587992 198.949896 
C 334.182237 197.515263 334.916006 196.142477 335.778715 194.851342 
z
" style="fill: #127c39; fill-opacity: 0.8"/>
   </g>
   <g id="patch_8">
    <path d="M 239.234771 184.897399 
C 237.467089 193.784128 236.724207 202.844308 237.020666 211.900287 
C 237.317125 220.956265 238.650995 229.948459 240.996109 238.700549 
L 332.591222 214.15771 
C 332.122199 212.407292 331.855425 210.608853 331.796133 208.797657 
C 331.736841 206.986462 331.885418 205.174426 332.238954 203.39708 
z
" style="fill: #248c46; fill-opacity: 0.8"/>
   </g>
   <g id="patch_9">
    <path d="M 240.996109 238.700549 
C 243.677133 248.706268 247.658235 258.317514 252.837579 267.288396 
C 258.016923 276.259282 264.349956 284.51264 271.674648 291.837338 
L 338.72693 224.785068 
C 337.261991 223.320128 335.995385 221.669456 334.959516 219.875279 
C 333.923647 218.081103 333.127427 216.158854 332.591222 214.15771 
z
" style="fill: #37a055; fill-opacity: 0.8"/>
   </g>
   <g id="patch_10">
    <path d="M 271.674648 291.837338 
C 278.999346 299.162037 287.252725 305.495077 296.223611 310.674421 
C 305.194496 315.853765 314.805739 319.834867 324.811461 322.515891 
L 349.354292 230.920778 
C 347.353148 230.384573 345.430899 229.588353 343.636722 228.552484 
C 341.842545 227.516615 340.191869 226.250007 338.72693 224.785068 
z
" style="fill: #52b365; fill-opacity: 0.8"/>
   </g>
   <g id="patch_11">
    <path d="M 324.811461 322.515891 
C 334.81718 325.196915 345.131318 326.5548 355.490001 326.5548 
C 365.848685 326.5548 376.16282 325.196915 386.168539 322.515891 
L 361.625708 230.920778 
C 359.624564 231.456983 357.561737 231.72856 355.49 231.72856 
C 353.418264 231.72856 351.355436 231.456983 349.354292 230.920778 
z
" style="fill: #75c477; fill-opacity: 0.8"/>
   </g>
   <g id="patch_12">
    <path d="M 386.168539 322.515891 
C 396.174251 319.834867 405.785514 315.853758 414.756389 310.674421 
C 423.727268 305.495084 431.980604 299.162086 439.305296 291.837402 
L 372.253059 224.78508 
C 370.788121 226.250017 369.137454 227.516617 367.343278 228.552484 
C 365.549103 229.588352 363.62685 230.384573 361.625708 230.920778 
z
" style="fill: #92d28f; fill-opacity: 0.8"/>
   </g>
   <g id="patch_13">
    <path d="M 439.305296 291.837402 
C 446.629994 284.51271 452.963028 276.259353 458.142379 267.288471 
C 463.32173 258.317592 467.302839 248.706346 469.98387 238.700627 
L 378.388774 214.157725 
C 377.852568 216.158869 377.056346 218.081118 376.020476 219.875294 
C 374.984606 221.669471 373.717999 223.320142 372.253059 224.78508 
z
" style="fill: #aedea7; fill-opacity: 0.8"/>
   </g>
   <g id="patch_14">
    <path d="M 469.98387 238.700627 
C 472.32899 229.948541 473.662868 220.956348 473.959334 211.900369 
C 474.255807 202.84439 473.512918 193.784209 471.745243 184.897479 
L 378.741049 203.397096 
C 379.094584 205.174442 379.243161 206.986478 379.183867 208.797674 
C 379.124574 210.60887 378.857798 212.407308 378.388774 214.157725 
z
" style="fill: #c6e8bf; fill-opacity: 0.8"/>
   </g>
   <g id="patch_15">
    <path d="M 471.745243 184.897479 
C 470.230534 177.282482 467.971276 169.834699 465.000053 162.661529 
C 462.02883 155.488359 458.359998 148.624443 454.046455 142.16876 
L 375.201291 194.851352 
C 376.064 196.142489 376.797766 197.515272 377.392011 198.949906 
C 377.986255 200.38454 378.438107 201.874096 378.741049 203.397096 
z
" style="fill: #d7efd1; fill-opacity: 0.8"/>
   </g>
   <g id="patch_16">
    <path d="M 454.046455 142.16876 
C 450.452718 136.790349 446.424725 131.715096 442.002866 126.993924 
C 437.581007 122.272752 432.780113 117.921473 427.64826 113.983659 
L 369.921652 189.214332 
C 370.948023 190.001895 371.908201 190.87215 372.792573 191.816385 
C 373.676945 192.760619 374.482544 193.77567 375.201291 194.851352 
z
" style="fill: #e4f5df; fill-opacity: 0.8"/>
   </g>
   <g id="patch_17">
    <path d="M 427.64826 113.983659 
C 423.543597 110.834035 419.237104 107.956524 414.756449 105.369614 
C 410.275795 102.782705 405.630605 100.49195 400.850626 98.512011 
L 364.562125 186.120002 
C 365.518121 186.51599 366.447159 186.974141 367.34329 187.491523 
C 368.239421 188.008905 369.100719 188.584407 369.921652 189.214332 
z
" style="fill: #ebf7e7; fill-opacity: 0.8"/>
   </g>
   <g id="patch_18">
    <path d="M 400.850626 98.512011 
C 397.266198 97.027286 393.611009 95.719436 389.898314 94.593202 
C 386.185619 93.466967 382.419889 92.523698 378.614682 91.766792 
L 360.114936 184.770958 
C 360.875978 184.92234 361.629124 185.110993 362.371663 185.33624 
C 363.114202 185.561487 363.84524 185.823057 364.562125 186.120002 
z
" style="fill: #f1faee; fill-opacity: 0.8"/>
   </g>
   <g id="patch_19">
    <path d="M 378.614682 91.766792 
C 376.078157 91.262245 373.525769 90.840839 370.961677 90.503269 
C 368.397583 90.165698 365.823156 89.912138 363.242474 89.742993 
L 357.040495 184.366199 
C 357.556631 184.400028 358.071517 184.45074 358.584335 184.518254 
C 359.097154 184.585768 359.607631 184.670049 360.114936 184.770958 
z
" style="fill: #f4fbf2; fill-opacity: 0.8"/>
   </g>
   <g id="patch_20">
    <path d="M 363.242474 89.742993 
C 361.952224 89.658423 360.660676 89.594972 359.368349 89.552666 
C 358.076023 89.51036 356.783091 89.4892 355.490073 89.4892 
L 355.490015 184.31544 
C 355.748618 184.31544 356.007205 184.319672 356.26567 184.328133 
C 356.524135 184.336594 356.782445 184.349285 357.040495 184.366199 
z
" style="fill: #f6fcf4; fill-opacity: 0.8"/>
   </g>
   <g id="patch_21">
    <path d="M 355.49 107.26912 
C 354.434897 107.26912 353.379859 107.285694 352.325277 107.318835 
C 351.270695 107.351977 350.216698 107.401682 349.163677 107.467933 
L 352.885043 166.617384 
C 353.31864 166.590104 353.752639 166.569638 354.186879 166.555991 
C 354.621118 166.542345 355.055546 166.53552 355.49 166.53552 
z
" style="fill: #40017e; fill-opacity: 0.8"/>
   </g>
   <g id="patch_22">
    <path d="M 349.163679 107.467933 
C 347.057506 107.600441 344.956016 107.799091 342.862319 108.063584 
C 340.768622 108.328078 338.683751 108.658293 336.610793 109.053733 
L 347.716209 167.270361 
C 348.56978 167.107532 349.428256 166.971561 350.290367 166.862652 
C 351.152477 166.753743 352.017797 166.671946 352.885044 166.617384 
z
" style="fill: #420680; fill-opacity: 0.8"/>
   </g>
   <g id="patch_23">
    <path d="M 336.610793 109.053733 
C 333.501039 109.646952 330.420966 110.386408 327.38084 111.269649 
C 324.340715 112.15289 321.343909 113.178921 318.400395 114.344341 
L 340.21781 169.448846 
C 341.429845 168.968967 342.663824 168.546484 343.91564 168.182797 
C 345.167457 167.819109 346.435722 167.514627 347.716209 167.270361 
z
" style="fill: #460d83; fill-opacity: 0.8"/>
   </g>
   <g id="patch_24">
    <path d="M 318.400395 114.344341 
C 314.475146 115.898457 310.651456 117.697747 306.951939 119.731575 
C 303.252421 121.765403 299.684385 124.029747 296.268944 126.511207 
L 331.104859 174.458732 
C 332.511217 173.436954 333.980409 172.504578 335.503739 171.667119 
C 337.02707 170.82966 338.601531 170.088776 340.21781 169.448846 
z
" style="fill: #4c1888; fill-opacity: 0.8"/>
   </g>
   <g id="patch_25">
    <path d="M 296.268944 126.511207 
C 291.998853 129.613608 287.979149 133.046764 284.246957 136.778957 
C 280.514764 140.511149 277.081608 144.530853 273.979207 148.800944 
L 321.926732 183.636859 
C 323.204191 181.878587 324.617844 180.223414 326.154629 178.686629 
C 327.691414 177.149844 329.346587 175.736191 331.104859 174.458732 
z
" style="fill: #53268f; fill-opacity: 0.8"/>
   </g>
   <g id="patch_26">
    <path d="M 273.979207 148.800944 
C 270.255488 153.926207 267.023444 159.391288 264.326062 165.123523 
C 261.62868 170.855758 259.477951 176.829635 257.902456 182.965776 
L 315.306894 197.704731 
C 315.955627 195.178085 316.841221 192.718253 317.951908 190.357921 
C 319.062595 187.997589 320.393436 185.747262 321.926732 183.636859 
z
" style="fill: #5e3a98; fill-opacity: 0.8"/>
   </g>
   <g id="patch_27">
    <path d="M 257.902456 182.965776 
C 256.063892 190.126523 255.019053 197.467942 254.786832 204.857307 
C 254.554618 212.246672 255.136421 219.639186 256.521739 226.901247 
L 314.738363 215.795808 
C 314.167938 212.805547 313.928372 209.761571 314.02399 206.718891 
C 314.11961 203.676211 314.549838 200.653274 315.306894 197.704731 
z
" style="fill: #694fa2; fill-opacity: 0.8"/>
   </g>
   <g id="patch_28">
    <path d="M 256.521739 226.901247 
C 258.105443 235.203284 260.7275 243.273151 264.32608 250.920513 
C 267.92466 258.567875 272.471236 265.732131 277.858578 272.244309 
L 323.52412 234.46648 
C 321.305803 231.784995 319.433683 228.835007 317.951915 225.686094 
C 316.470147 222.53718 315.390477 219.214293 314.738363 215.795808 
z
" style="fill: #7669af; fill-opacity: 0.8"/>
   </g>
   <g id="patch_29">
    <path d="M 277.858578 272.244309 
C 283.921455 279.573063 290.991704 286.0065 298.8585 291.352765 
C 306.7253 296.699031 315.309681 300.904474 324.35568 303.843691 
L 342.669986 247.477991 
C 338.945163 246.267725 335.410418 244.536072 332.171147 242.334668 
C 328.931878 240.133265 326.020599 237.484203 323.52412 234.46648 
z
" style="fill: #8784bd; fill-opacity: 0.8"/>
   </g>
   <g id="patch_30">
    <path d="M 324.35568 303.843691 
C 334.410696 307.110758 344.917581 308.77488 355.490049 308.77488 
C 366.062518 308.774874 376.569397 307.11074 386.62441 303.843661 
L 368.310051 247.477978 
C 364.169752 248.823246 359.84339 249.508478 355.49002 249.50848 
C 351.136651 249.50848 346.810287 248.823253 342.669986 247.477991 
z
" style="fill: #9e9ac8; fill-opacity: 0.8"/>
   </g>
   <g id="patch_31">
    <path d="M 386.62441 303.843661 
C 395.6704 300.904438 404.254751 296.699001 412.121542 291.352735 
C 419.988332 286.00647 427.058587 279.573027 433.121452 272.244273 
L 387.455892 234.466465 
C 384.959418 237.484188 382.048137 240.133252 378.80887 242.334656 
C 375.569603 244.536059 372.034871 246.26771 368.310051 247.477978 
z
" style="fill: #b5b5d7; fill-opacity: 0.8"/>
   </g>
   <g id="patch_32">
    <path d="M 433.121452 272.244273 
C 438.5088 265.732089 443.055376 258.567821 446.65395 250.920447 
C 450.252524 243.273073 452.874581 235.203197 454.458279 226.90115 
L 396.241644 215.795768 
C 395.589533 219.214258 394.509863 222.537148 393.028097 225.686066 
C 391.546331 228.834985 389.674212 231.784978 387.455892 234.466465 
z
" style="fill: #cacae3; fill-opacity: 0.8"/>
   </g>
   <g id="patch_33">
    <path d="M 454.458279 226.90115 
C 455.843585 219.639099 456.425382 212.246561 456.193162 204.857209 
C 455.960935 197.467857 454.916102 190.126486 453.077538 182.96575 
L 395.673104 197.704721 
C 396.43016 200.653259 396.860385 203.676176 396.956008 206.718851 
C 397.051628 209.761525 396.812064 212.805511 396.241644 215.795768 
z
" style="fill: #dbdbec; fill-opacity: 0.8"/>
   </g>
   <g id="patch_34">
    <path d="M 453.077538 182.96575 
C 451.502043 176.829614 449.35132 170.855752 446.653938 165.12352 
C 443.956556 159.391288 440.724512 153.926201 437.000793 148.800944 
L 389.053268 183.636859 
C 390.586564 185.747259 391.917405 187.997589 393.028092 190.35792 
C 394.138779 192.718251 395.024371 195.178077 395.673104 197.704721 
z
" style="fill: #e6e5f1; fill-opacity: 0.8"/>
   </g>
   <g id="patch_35">
    <path d="M 437.000793 148.800944 
C 433.898392 144.530853 430.465236 140.511149 426.733043 136.778957 
C 423.000851 133.046764 418.981141 129.613602 414.71105 126.511201 
L 379.875138 174.45873 
C 381.633411 175.736189 383.288586 177.149844 384.825371 178.686629 
C 386.362156 180.223414 387.775809 181.878587 389.053268 183.636859 
z
" style="fill: #efedf5; fill-opacity: 0.8"/>
   </g>
   <g id="patch_36">
    <path d="M 414.71105 126.511201 
C 411.295621 124.029747 407.727603 121.765415 404.028097 119.731593 
C 400.328595 117.697771 396.50492 115.898487 392.579683 114.344371 
L 370.762222 169.448859 
C 372.378497 170.088789 373.952951 170.82967 375.476275 171.667127 
C 376.999601 172.504583 378.468785 173.436954 379.875138 174.45873 
z
" style="fill: #f4f2f8; fill-opacity: 0.8"/>
   </g>
   <g id="patch_37">
    <path d="M 392.579683 114.344371 
C 389.63616 113.178945 386.639363 112.152908 383.599229 111.269667 
C 380.559094 110.386426 377.478992 109.646952 374.369228 109.053733 
L 363.2638 167.270361 
C 364.544291 167.514627 365.812568 167.819116 367.064388 168.182804 
C 368.316208 168.546492 369.550183 168.968977 370.762222 169.448859 
z
" style="fill: #f8f6fa; fill-opacity: 0.8"/>
   </g>
   <g id="patch_38">
    <path d="M 374.369228 109.053733 
C 372.296278 108.658293 370.211439 108.32809 368.11775 108.063596 
C 366.024062 107.799103 363.922555 107.600447 361.81639 107.467939 
L 358.094984 166.617387 
C 358.962229 166.671949 359.827555 166.753748 360.689662 166.862657 
C 361.551769 166.971566 362.410232 167.107532 363.2638 167.270361 
z
" style="fill: #faf9fc; fill-opacity: 0.8"/>
   </g>
   <g id="patch_39">
    <path d="M 361.81639 107.467939 
C 360.763369 107.401688 359.709371 107.351982 358.654788 107.318838 
C 357.600205 107.285695 356.545166 107.26912 355.490062 107.26912 
L 355.490026 166.53552 
C 355.92448 166.53552 356.358908 166.542345 356.793148 166.555992 
C 357.227388 166.56964 357.661387 166.590107 358.094984 166.617387 
z
" style="fill: #fcfbfd; fill-opacity: 0.8"/>
   </g>
   <g id="matplotlib.axis_1"/>
   <g id="matplotlib.axis_2"/>
   <g id="text_1">
    <!-- 4 -->
    <g transform="translate(309.558 80.338237) scale(0.1 -0.1)">
     <defs>
      <path id="DejaVuSans-34" d="M 2419 4116 
L 825 1625 
L 2419 1625 
L 2419 4116 
z
M 2253 4666 
L 3047 4666 
L 3047 1625 
L 3713 1625 
L 3713 1100 
L 3047 1100 
L 3047 0 
L 2419 0 
L 2419 1100 
L 313 1100 
L 313 1709 
L 2253 4666 
z
" transform="scale(0.015625)"/>
     </defs>
     <use xlink:href="#DejaVuSans-34"/>
    </g>
   </g>
   <g id="text_2">
    <!-- 5 -->
    <g transform="translate(280.971161 92.731084) scale(0.1 -0.1)">
     <defs>
      <path id="DejaVuSans-35" d="M 691 4666 
L 3169 4666 
L 3169 4134 
L 1269 4134 
L 1269 2991 
Q 1406 3038 1543 3061 
Q 1681 3084 1819 3084 
Q 2600 3084 3056 2656 
Q 3513 2228 3513 1497 
Q 3513 744 3044 326 
Q 2575 -91 1722 -91 
Q 1428 -91 1123 -41 
Q 819 9 494 109 
L 494 744 
Q 775 591 1075 516 
Q 1375 441 1709 441 
Q 2250 441 2565 725 
Q 2881 1009 2881 1497 
Q 2881 1984 2565 2268 
Q 2250 2553 1709 2553 
Q 1456 2553 1204 2497 
Q 953 2441 691 2322 
L 691 4666 
z
" transform="scale(0.015625)"/>
     </defs>
     <use xlink:href="#DejaVuSans-35"/>
    </g>
   </g>
   <g id="text_3">
    <!-- 6 -->
    <g transform="translate(249.637749 117.599043) scale(0.1 -0.1)">
     <defs>
      <path id="DejaVuSans-36" d="M 2113 2584 
Q 1688 2584 1439 2293 
Q 1191 2003 1191 1497 
Q 1191 994 1439 701 
Q 1688 409 2113 409 
Q 2538 409 2786 701 
Q 3034 994 3034 1497 
Q 3034 2003 2786 2293 
Q 2538 2584 2113 2584 
z
M 3366 4563 
L 3366 3988 
Q 3128 4100 2886 4159 
Q 2644 4219 2406 4219 
Q 1781 4219 1451 3797 
Q 1122 3375 1075 2522 
Q 1259 2794 1537 2939 
Q 1816 3084 2150 3084 
Q 2853 3084 3261 2657 
Q 3669 2231 3669 1497 
Q 3669 778 3244 343 
Q 2819 -91 2113 -91 
Q 1303 -91 875 529 
Q 447 1150 447 2328 
Q 447 3434 972 4092 
Q 1497 4750 2381 4750 
Q 2619 4750 2861 4703 
Q 3103 4656 3366 4563 
z
" transform="scale(0.015625)"/>
     </defs>
     <use xlink:href="#DejaVuSans-36"/>
    </g>
   </g>
   <g id="text_4">
    <!-- 7 -->
    <g transform="translate(223.190959 158.616776) scale(0.1 -0.1)">
     <defs>
      <path id="DejaVuSans-37" d="M 525 4666 
L 3525 4666 
L 3525 4397 
L 1831 0 
L 1172 0 
L 2766 4134 
L 525 4134 
L 525 4666 
z
" transform="scale(0.015625)"/>
     </defs>
     <use xlink:href="#DejaVuSans-37"/>
    </g>
   </g>
   <g id="text_5">
    <!-- 8 -->
    <g transform="translate(212.887765 215.241438) scale(0.1 -0.1)">
     <defs>
      <path id="DejaVuSans-38" d="M 2034 2216 
Q 1584 2216 1326 1975 
Q 1069 1734 1069 1313 
Q 1069 891 1326 650 
Q 1584 409 2034 409 
Q 2484 409 2743 651 
Q 3003 894 3003 1313 
Q 3003 1734 2745 1975 
Q 2488 2216 2034 2216 
z
M 1403 2484 
Q 997 2584 770 2862 
Q 544 3141 544 3541 
Q 544 4100 942 4425 
Q 1341 4750 2034 4750 
Q 2731 4750 3128 4425 
Q 3525 4100 3525 3541 
Q 3525 3141 3298 2862 
Q 3072 2584 2669 2484 
Q 3125 2378 3379 2068 
Q 3634 1759 3634 1313 
Q 3634 634 3220 271 
Q 2806 -91 2034 -91 
Q 1263 -91 848 271 
Q 434 634 434 1313 
Q 434 1759 690 2068 
Q 947 2378 1403 2484 
z
M 1172 3481 
Q 1172 3119 1398 2916 
Q 1625 2713 2034 2713 
Q 2441 2713 2670 2916 
Q 2900 3119 2900 3481 
Q 2900 3844 2670 4047 
Q 2441 4250 2034 4250 
Q 1625 4250 1398 4047 
Q 1172 3844 1172 3481 
z
" transform="scale(0.015625)"/>
     </defs>
     <use xlink:href="#DejaVuSans-38"/>
    </g>
   </g>
   <g id="text_6">
    <!-- 9 -->
    <g transform="translate(231.077253 278.937789) scale(0.1 -0.1)">
     <defs>
      <path id="DejaVuSans-39" d="M 703 97 
L 703 672 
Q 941 559 1184 500 
Q 1428 441 1663 441 
Q 2288 441 2617 861 
Q 2947 1281 2994 2138 
Q 2813 1869 2534 1725 
Q 2256 1581 1919 1581 
Q 1219 1581 811 2004 
Q 403 2428 403 3163 
Q 403 3881 828 4315 
Q 1253 4750 1959 4750 
Q 2769 4750 3195 4129 
Q 3622 3509 3622 2328 
Q 3622 1225 3098 567 
Q 2575 -91 1691 -91 
Q 1453 -91 1209 -44 
Q 966 3 703 97 
z
M 1959 2075 
Q 2384 2075 2632 2365 
Q 2881 2656 2881 3163 
Q 2881 3666 2632 3958 
Q 2384 4250 1959 4250 
Q 1534 4250 1286 3958 
Q 1038 3666 1038 3163 
Q 1038 2656 1286 2365 
Q 1534 2075 1959 2075 
z
" transform="scale(0.015625)"/>
     </defs>
     <use xlink:href="#DejaVuSans-39"/>
    </g>
   </g>
   <g id="text_7">
    <!-- 10 -->
    <g transform="translate(274.608597 328.831629) scale(0.1 -0.1)">
     <defs>
      <path id="DejaVuSans-31" d="M 794 531 
L 1825 531 
L 1825 4091 
L 703 3866 
L 703 4441 
L 1819 4666 
L 2450 4666 
L 2450 531 
L 3481 531 
L 3481 0 
L 794 0 
L 794 531 
z
" transform="scale(0.015625)"/>
      <path id="DejaVuSans-30" d="M 2034 4250 
Q 1547 4250 1301 3770 
Q 1056 3291 1056 2328 
Q 1056 1369 1301 889 
Q 1547 409 2034 409 
Q 2525 409 2770 889 
Q 3016 1369 3016 2328 
Q 3016 3291 2770 3770 
Q 2525 4250 2034 4250 
z
M 2034 4750 
Q 2819 4750 3233 4129 
Q 3647 3509 3647 2328 
Q 3647 1150 3233 529 
Q 2819 -91 2034 -91 
Q 1250 -91 836 529 
Q 422 1150 422 2328 
Q 422 3509 836 4129 
Q 1250 4750 2034 4750 
z
" transform="scale(0.015625)"/>
     </defs>
     <use xlink:href="#DejaVuSans-31"/>
     <use xlink:href="#DejaVuSans-30" transform="translate(63.623047 0)"/>
    </g>
   </g>
   <g id="text_8">
    <!-- 11 -->
    <g transform="translate(355.490002 347.094095) scale(0.1 -0.1)">
     <use xlink:href="#DejaVuSans-31"/>
     <use xlink:href="#DejaVuSans-31" transform="translate(63.623047 0)"/>
    </g>
   </g>
   <g id="text_9">
    <!-- 12 -->
    <g transform="translate(423.646293 328.831692) scale(0.1 -0.1)">
     <defs>
      <path id="DejaVuSans-32" d="M 1228 531 
L 3431 531 
L 3431 0 
L 469 0 
L 469 531 
Q 828 903 1448 1529 
Q 2069 2156 2228 2338 
Q 2531 2678 2651 2914 
Q 2772 3150 2772 3378 
Q 2772 3750 2511 3984 
Q 2250 4219 1831 4219 
Q 1534 4219 1204 4116 
Q 875 4013 500 3803 
L 500 4441 
Q 881 4594 1212 4672 
Q 1544 4750 1819 4750 
Q 2544 4750 2975 4387 
Q 3406 4025 3406 3419 
Q 3406 3131 3298 2873 
Q 3191 2616 2906 2266 
Q 2828 2175 2409 1742 
Q 1991 1309 1228 531 
z
" transform="scale(0.015625)"/>
     </defs>
     <use xlink:href="#DejaVuSans-31"/>
     <use xlink:href="#DejaVuSans-32" transform="translate(63.623047 0)"/>
    </g>
   </g>
   <g id="text_10">
    <!-- 13 -->
    <g transform="translate(473.540265 278.937758) scale(0.1 -0.1)">
     <defs>
      <path id="DejaVuSans-33" d="M 2597 2516 
Q 3050 2419 3304 2112 
Q 3559 1806 3559 1356 
Q 3559 666 3084 287 
Q 2609 -91 1734 -91 
Q 1441 -91 1130 -33 
Q 819 25 488 141 
L 488 750 
Q 750 597 1062 519 
Q 1375 441 1716 441 
Q 2309 441 2620 675 
Q 2931 909 2931 1356 
Q 2931 1769 2642 2001 
Q 2353 2234 1838 2234 
L 1294 2234 
L 1294 2753 
L 1863 2753 
Q 2328 2753 2575 2939 
Q 2822 3125 2822 3475 
Q 2822 3834 2567 4026 
Q 2313 4219 1838 4219 
Q 1578 4219 1281 4162 
Q 984 4106 628 3988 
L 628 4550 
Q 988 4650 1302 4700 
Q 1616 4750 1894 4750 
Q 2613 4750 3031 4423 
Q 3450 4097 3450 3541 
Q 3450 3153 3228 2886 
Q 3006 2619 2597 2516 
z
" transform="scale(0.015625)"/>
     </defs>
     <use xlink:href="#DejaVuSans-31"/>
     <use xlink:href="#DejaVuSans-33" transform="translate(63.623047 0)"/>
    </g>
   </g>
   <g id="text_11">
    <!-- 14 -->
    <g transform="translate(491.729735 215.241434) scale(0.1 -0.1)">
     <use xlink:href="#DejaVuSans-31"/>
     <use xlink:href="#DejaVuSans-34" transform="translate(63.623047 0)"/>
    </g>
   </g>
   <g id="text_12">
    <!-- 15 -->
    <g transform="translate(481.426564 158.616833) scale(0.1 -0.1)">
     <use xlink:href="#DejaVuSans-31"/>
     <use xlink:href="#DejaVuSans-35" transform="translate(63.623047 0)"/>
    </g>
   </g>
   <g id="text_13">
    <!-- 16 -->
    <g transform="translate(454.979838 117.599135) scale(0.1 -0.1)">
     <use xlink:href="#DejaVuSans-31"/>
     <use xlink:href="#DejaVuSans-36" transform="translate(63.623047 0)"/>
    </g>
   </g>
   <g id="text_14">
    <!-- 17 -->
    <g transform="translate(423.646477 92.731164) scale(0.1 -0.1)">
     <use xlink:href="#DejaVuSans-31"/>
     <use xlink:href="#DejaVuSans-37" transform="translate(63.623047 0)"/>
    </g>
   </g>
   <g id="text_15">
    <!-- 18 -->
    <g transform="translate(395.059559 80.338255) scale(0.1 -0.1)">
     <use xlink:href="#DejaVuSans-31"/>
     <use xlink:href="#DejaVuSans-38" transform="translate(63.623047 0)"/>
    </g>
   </g>
   <g id="text_16">
    <!-- 5 -->
    <g transform="translate(315.150858 148.978076) scale(0.1 -0.1)">
     <use xlink:href="#DejaVuSans-35"/>
    </g>
   </g>
   <g id="text_17">
    <!-- 6 -->
    <g transform="translate(299.257368 160.911244) scale(0.1 -0.1)">
     <use xlink:href="#DejaVuSans-36"/>
    </g>
   </g>
   <g id="text_18">
    <!-- 7 -->
    <g transform="translate(285.312744 180.752441) scale(0.1 -0.1)">
     <use xlink:href="#DejaVuSans-37"/>
    </g>
   </g>
   <g id="text_19">
    <!-- 8 -->
    <g transform="translate(278.635285 208.566073) scale(0.1 -0.1)">
     <use xlink:href="#DejaVuSans-38"/>
    </g>
   </g>
   <g id="text_20">
    <!-- 9 -->
    <g transform="translate(285.312763 240.81035) scale(0.1 -0.1)">
     <use xlink:href="#DejaVuSans-39"/>
    </g>
   </g>
   <g id="text_21">
    <!-- 10 -->
    <g transform="translate(303.122951 269.11291) scale(0.1 -0.1)">
     <use xlink:href="#DejaVuSans-31"/>
     <use xlink:href="#DejaVuSans-30" transform="translate(63.623047 0)"/>
    </g>
   </g>
   <g id="text_22">
    <!-- 11 -->
    <g transform="translate(355.490034 281.308391) scale(0.1 -0.1)">
     <use xlink:href="#DejaVuSans-31"/>
     <use xlink:href="#DejaVuSans-31" transform="translate(63.623047 0)"/>
    </g>
   </g>
   <g id="text_23">
    <!-- 12 -->
    <g transform="translate(395.132106 269.112871) scale(0.1 -0.1)">
     <use xlink:href="#DejaVuSans-31"/>
     <use xlink:href="#DejaVuSans-32" transform="translate(63.623047 0)"/>
    </g>
   </g>
   <g id="text_24">
    <!-- 13 -->
    <g transform="translate(419.304766 240.810288) scale(0.1 -0.1)">
     <use xlink:href="#DejaVuSans-31"/>
     <use xlink:href="#DejaVuSans-33" transform="translate(63.623047 0)"/>
    </g>
   </g>
   <g id="text_25">
    <!-- 14 -->
    <g transform="translate(425.982214 208.566021) scale(0.1 -0.1)">
     <use xlink:href="#DejaVuSans-31"/>
     <use xlink:href="#DejaVuSans-34" transform="translate(63.623047 0)"/>
    </g>
   </g>
   <g id="text_26">
    <!-- 15 -->
    <g transform="translate(419.304741 180.75241) scale(0.1 -0.1)">
     <use xlink:href="#DejaVuSans-31"/>
     <use xlink:href="#DejaVuSans-35" transform="translate(63.623047 0)"/>
    </g>
   </g>
   <g id="text_27">
    <!-- 16 -->
    <g transform="translate(405.36013 160.911243) scale(0.1 -0.1)">
     <use xlink:href="#DejaVuSans-31"/>
     <use xlink:href="#DejaVuSans-36" transform="translate(63.623047 0)"/>
    </g>
   </g>
   <g id="text_28">
    <!-- 17 -->
    <g transform="translate(389.466641 148.978075) scale(0.1 -0.1)">
     <use xlink:href="#DejaVuSans-31"/>
     <use xlink:href="#DejaVuSans-37" transform="translate(63.623047 0)"/>
    </g>
   </g>
   <g id="text_29">
    <!-- Outer: d8+d12 -->
    <g transform="translate(305.5925 22.418625) scale(0.12 -0.12)">
     <defs>
      <path id="DejaVuSans-Bold-4f" d="M 2719 3878 
Q 2169 3878 1866 3472 
Q 1563 3066 1563 2328 
Q 1563 1594 1866 1187 
Q 2169 781 2719 781 
Q 3272 781 3575 1187 
Q 3878 1594 3878 2328 
Q 3878 3066 3575 3472 
Q 3272 3878 2719 3878 
z
M 2719 4750 
Q 3844 4750 4481 4106 
Q 5119 3463 5119 2328 
Q 5119 1197 4481 553 
Q 3844 -91 2719 -91 
Q 1597 -91 958 553 
Q 319 1197 319 2328 
Q 319 3463 958 4106 
Q 1597 4750 2719 4750 
z
" transform="scale(0.015625)"/>
      <path id="DejaVuSans-Bold-75" d="M 500 1363 
L 500 3500 
L 1625 3500 
L 1625 3150 
Q 1625 2866 1622 2436 
Q 1619 2006 1619 1863 
Q 1619 1441 1641 1255 
Q 1663 1069 1716 984 
Q 1784 875 1895 815 
Q 2006 756 2150 756 
Q 2500 756 2700 1025 
Q 2900 1294 2900 1772 
L 2900 3500 
L 4019 3500 
L 4019 0 
L 2900 0 
L 2900 506 
Q 2647 200 2364 54 
Q 2081 -91 1741 -91 
Q 1134 -91 817 281 
Q 500 653 500 1363 
z
" transform="scale(0.015625)"/>
      <path id="DejaVuSans-Bold-74" d="M 1759 4494 
L 1759 3500 
L 2913 3500 
L 2913 2700 
L 1759 2700 
L 1759 1216 
Q 1759 972 1856 886 
Q 1953 800 2241 800 
L 2816 800 
L 2816 0 
L 1856 0 
Q 1194 0 917 276 
Q 641 553 641 1216 
L 641 2700 
L 84 2700 
L 84 3500 
L 641 3500 
L 641 4494 
L 1759 4494 
z
" transform="scale(0.015625)"/>
      <path id="DejaVuSans-Bold-65" d="M 4031 1759 
L 4031 1441 
L 1416 1441 
Q 1456 1047 1700 850 
Q 1944 653 2381 653 
Q 2734 653 3104 758 
Q 3475 863 3866 1075 
L 3866 213 
Q 3469 63 3072 -14 
Q 2675 -91 2278 -91 
Q 1328 -91 801 392 
Q 275 875 275 1747 
Q 275 2603 792 3093 
Q 1309 3584 2216 3584 
Q 3041 3584 3536 3087 
Q 4031 2591 4031 1759 
z
M 2881 2131 
Q 2881 2450 2695 2645 
Q 2509 2841 2209 2841 
Q 1884 2841 1681 2658 
Q 1478 2475 1428 2131 
L 2881 2131 
z
" transform="scale(0.015625)"/>
      <path id="DejaVuSans-Bold-72" d="M 3138 2547 
Q 2991 2616 2845 2648 
Q 2700 2681 2553 2681 
Q 2122 2681 1889 2404 
Q 1656 2128 1656 1613 
L 1656 0 
L 538 0 
L 538 3500 
L 1656 3500 
L 1656 2925 
Q 1872 3269 2151 3426 
Q 2431 3584 2822 3584 
Q 2878 3584 2943 3579 
Q 3009 3575 3134 3559 
L 3138 2547 
z
" transform="scale(0.015625)"/>
      <path id="DejaVuSans-Bold-3a" d="M 716 3500 
L 1844 3500 
L 1844 2291 
L 716 2291 
L 716 3500 
z
M 716 1209 
L 1844 1209 
L 1844 0 
L 716 0 
L 716 1209 
z
" transform="scale(0.015625)"/>
      <path id="DejaVuSans-Bold-20" transform="scale(0.015625)"/>
      <path id="DejaVuSans-Bold-64" d="M 2919 2988 
L 2919 4863 
L 4044 4863 
L 4044 0 
L 2919 0 
L 2919 506 
Q 2688 197 2409 53 
Q 2131 -91 1766 -91 
Q 1119 -91 703 423 
Q 288 938 288 1747 
Q 288 2556 703 3070 
Q 1119 3584 1766 3584 
Q 2128 3584 2408 3439 
Q 2688 3294 2919 2988 
z
M 2181 722 
Q 2541 722 2730 984 
Q 2919 1247 2919 1747 
Q 2919 2247 2730 2509 
Q 2541 2772 2181 2772 
Q 1825 2772 1636 2509 
Q 1447 2247 1447 1747 
Q 1447 1247 1636 984 
Q 1825 722 2181 722 
z
" transform="scale(0.015625)"/>
      <path id="DejaVuSans-Bold-38" d="M 2228 2088 
Q 1891 2088 1709 1903 
Q 1528 1719 1528 1375 
Q 1528 1031 1709 848 
Q 1891 666 2228 666 
Q 2563 666 2741 848 
Q 2919 1031 2919 1375 
Q 2919 1722 2741 1905 
Q 2563 2088 2228 2088 
z
M 1350 2484 
Q 925 2613 709 2878 
Q 494 3144 494 3541 
Q 494 4131 934 4440 
Q 1375 4750 2228 4750 
Q 3075 4750 3515 4442 
Q 3956 4134 3956 3541 
Q 3956 3144 3739 2878 
Q 3522 2613 3097 2484 
Q 3572 2353 3814 2058 
Q 4056 1763 4056 1313 
Q 4056 619 3595 264 
Q 3134 -91 2228 -91 
Q 1319 -91 855 264 
Q 391 619 391 1313 
Q 391 1763 633 2058 
Q 875 2353 1350 2484 
z
M 1631 3419 
Q 1631 3141 1786 2991 
Q 1941 2841 2228 2841 
Q 2509 2841 2662 2991 
Q 2816 3141 2816 3419 
Q 2816 3697 2662 3845 
Q 2509 3994 2228 3994 
Q 1941 3994 1786 3844 
Q 1631 3694 1631 3419 
z
" transform="scale(0.015625)"/>
      <path id="DejaVuSans-Bold-2b" d="M 3053 4013 
L 3053 2375 
L 4684 2375 
L 4684 1638 
L 3053 1638 
L 3053 0 
L 2309 0 
L 2309 1638 
L 678 1638 
L 678 2375 
L 2309 2375 
L 2309 4013 
L 3053 4013 
z
" transform="scale(0.015625)"/>
      <path id="DejaVuSans-Bold-31" d="M 750 831 
L 1813 831 
L 1813 3847 
L 722 3622 
L 722 4441 
L 1806 4666 
L 2950 4666 
L 2950 831 
L 4013 831 
L 4013 0 
L 750 0 
L 750 831 
z
" transform="scale(0.015625)"/>
      <path id="DejaVuSans-Bold-32" d="M 1844 884 
L 3897 884 
L 3897 0 
L 506 0 
L 506 884 
L 2209 2388 
Q 2438 2594 2547 2791 
Q 2656 2988 2656 3200 
Q 2656 3528 2436 3728 
Q 2216 3928 1850 3928 
Q 1569 3928 1234 3808 
Q 900 3688 519 3450 
L 519 4475 
Q 925 4609 1322 4679 
Q 1719 4750 2100 4750 
Q 2938 4750 3402 4381 
Q 3866 4013 3866 3353 
Q 3866 2972 3669 2642 
Q 3472 2313 2841 1759 
L 1844 884 
z
" transform="scale(0.015625)"/>
     </defs>
     <use xlink:href="#DejaVuSans-Bold-4f"/>
     <use xlink:href="#DejaVuSans-Bold-75" transform="translate(85.009766 0)"/>
     <use xlink:href="#DejaVuSans-Bold-74" transform="translate(156.201172 0)"/>
     <use xlink:href="#DejaVuSans-Bold-65" transform="translate(204.003906 0)"/>
     <use xlink:href="#DejaVuSans-Bold-72" transform="translate(271.826172 0)"/>
     <use xlink:href="#DejaVuSans-Bold-3a" transform="translate(321.142578 0)"/>
     <use xlink:href="#DejaVuSans-Bold-20" transform="translate(361.132812 0)"/>
     <use xlink:href="#DejaVuSans-Bold-64" transform="translate(395.947266 0)"/>
     <use xlink:href="#DejaVuSans-Bold-38" transform="translate(467.529297 0)"/>
     <use xlink:href="#DejaVuSans-Bold-2b" transform="translate(537.109375 0)"/>
     <use xlink:href="#DejaVuSans-Bold-64" transform="translate(620.898438 0)"/>
     <use xlink:href="#DejaVuSans-Bold-31" transform="translate(692.480469 0)"/>
     <use xlink:href="#DejaVuSans-Bold-32" transform="translate(762.060547 0)"/>
    </g>
    <!-- Inner: 2d10 -->
    <g transform="translate(316.380313 35.856) scale(0.12 -0.12)">
     <defs>
      <path id="DejaVuSans-Bold-49" d="M 588 4666 
L 1791 4666 
L 1791 0 
L 588 0 
L 588 4666 
z
" transform="scale(0.015625)"/>
      <path id="DejaVuSans-Bold-6e" d="M 4056 2131 
L 4056 0 
L 2931 0 
L 2931 347 
L 2931 1631 
Q 2931 2084 2911 2256 
Q 2891 2428 2841 2509 
Q 2775 2619 2662 2680 
Q 2550 2741 2406 2741 
Q 2056 2741 1856 2470 
Q 1656 2200 1656 1722 
L 1656 0 
L 538 0 
L 538 3500 
L 1656 3500 
L 1656 2988 
Q 1909 3294 2193 3439 
Q 2478 3584 2822 3584 
Q 3428 3584 3742 3212 
Q 4056 2841 4056 2131 
z
" transform="scale(0.015625)"/>
      <path id="DejaVuSans-Bold-30" d="M 2944 2338 
Q 2944 3213 2780 3570 
Q 2616 3928 2228 3928 
Q 1841 3928 1675 3570 
Q 1509 3213 1509 2338 
Q 1509 1453 1675 1090 
Q 1841 728 2228 728 
Q 2613 728 2778 1090 
Q 2944 1453 2944 2338 
z
M 4147 2328 
Q 4147 1169 3647 539 
Q 3147 -91 2228 -91 
Q 1306 -91 806 539 
Q 306 1169 306 2328 
Q 306 3491 806 4120 
Q 1306 4750 2228 4750 
Q 3147 4750 3647 4120 
Q 4147 3491 4147 2328 
z
" transform="scale(0.015625)"/>
     </defs>
     <use xlink:href="#DejaVuSans-Bold-49"/>
     <use xlink:href="#DejaVuSans-Bold-6e" transform="translate(37.207031 0)"/>
     <use xlink:href="#DejaVuSans-Bold-6e" transform="translate(108.398438 0)"/>
     <use xlink:href="#DejaVuSans-Bold-65" transform="translate(179.589844 0)"/>
     <use xlink:href="#DejaVuSans-Bold-72" transform="translate(247.412109 0)"/>
     <use xlink:href="#DejaVuSans-Bold-3a" transform="translate(296.728516 0)"/>
     <use xlink:href="#DejaVuSans-Bold-20" transform="translate(336.71875 0)"/>
     <use xlink:href="#DejaVuSans-Bold-32" transform="translate(371.533203 0)"/>
     <use xlink:href="#DejaVuSans-Bold-64" transform="translate(441.113281 0)"/>
     <use xlink:href="#DejaVuSans-Bold-31" transform="translate(512.695312 0)"/>
     <use xlink:href="#DejaVuSans-Bold-30" transform="translate(582.275391 0)"/>
    </g>
   </g>
  </g>
  <g id="axes_2">
   <g id="patch_40">
    <path d="M 30.58 663.32 
L 328.694903 663.32 
L 328.694903 366.988 
L 30.58 366.988 
L 30.58 663.32 
z
" style="fill: none"/>
   </g>
   <g id="patch_41">
    <path d="M 30.58 654.43004 
L 58.971895 654.43004 
L 58.971895 648.5034 
L 30.58 648.5034 
z
" clip-path="url(#pe6d4a0363a)" style="fill: #9467bd; opacity: 0.8; stroke: #9467bd; stroke-linejoin: miter"/>
   </g>
   <g id="patch_42">
    <path d="M 30.58 639.61344 
L 87.363791 639.61344 
L 87.363791 633.6868 
L 30.58 633.6868 
z
" clip-path="url(#pe6d4a0363a)" style="fill: #9467bd; opacity: 0.8; stroke: #9467bd; stroke-linejoin: miter"/>
   </g>
   <g id="patch_43">
    <path d="M 30.58 624.79684 
L 115.755686 624.79684 
L 115.755686 618.8702 
L 30.58 618.8702 
z
" clip-path="url(#pe6d4a0363a)" style="fill: #9467bd; opacity: 0.8; stroke: #9467bd; stroke-linejoin: miter"/>
   </g>
   <g id="patch_44">
    <path d="M 30.58 609.98024 
L 144.147582 609.98024 
L 144.147582 604.0536 
L 30.58 604.0536 
z
" clip-path="url(#pe6d4a0363a)" style="fill: #9467bd; opacity: 0.8; stroke: #9467bd; stroke-linejoin: miter"/>
   </g>
   <g id="patch_45">
    <path d="M 30.58 595.16364 
L 172.539477 595.16364 
L 172.539477 589.237 
L 30.58 589.237 
z
" clip-path="url(#pe6d4a0363a)" style="fill: #9467bd; opacity: 0.8; stroke: #9467bd; stroke-linejoin: miter"/>
   </g>
   <g id="patch_46">
    <path d="M 30.58 580.34704 
L 200.931373 580.34704 
L 200.931373 574.4204 
L 30.58 574.4204 
z
" clip-path="url(#pe6d4a0363a)" style="fill: #9467bd; opacity: 0.8; stroke: #9467bd; stroke-linejoin: miter"/>
   </g>
   <g id="patch_47">
    <path d="M 30.58 565.53044 
L 229.323268 565.53044 
L 229.323268 559.6038 
L 30.58 559.6038 
z
" clip-path="url(#pe6d4a0363a)" style="fill: #9467bd; opacity: 0.8; stroke: #9467bd; stroke-linejoin: miter"/>
   </g>
   <g id="patch_48">
    <path d="M 30.58 550.71384 
L 257.715164 550.71384 
L 257.715164 544.7872 
L 30.58 544.7872 
z
" clip-path="url(#pe6d4a0363a)" style="fill: #9467bd; opacity: 0.8; stroke: #9467bd; stroke-linejoin: miter"/>
   </g>
   <g id="patch_49">
    <path d="M 30.58 535.89724 
L 286.107059 535.89724 
L 286.107059 529.9706 
L 30.58 529.9706 
z
" clip-path="url(#pe6d4a0363a)" style="fill: #9467bd; opacity: 0.8; stroke: #9467bd; stroke-linejoin: miter"/>
   </g>
   <g id="patch_50">
    <path d="M 30.58 521.08064 
L 314.498955 521.08064 
L 314.498955 515.154 
L 30.58 515.154 
z
" clip-path="url(#pe6d4a0363a)" style="fill: #9467bd; opacity: 0.8; stroke: #9467bd; stroke-linejoin: miter"/>
   </g>
   <g id="patch_51">
    <path d="M 30.58 506.26404 
L 286.107059 506.26404 
L 286.107059 500.3374 
L 30.58 500.3374 
z
" clip-path="url(#pe6d4a0363a)" style="fill: #9467bd; opacity: 0.8; stroke: #9467bd; stroke-linejoin: miter"/>
   </g>
   <g id="patch_52">
    <path d="M 30.58 491.44744 
L 257.715164 491.44744 
L 257.715164 485.5208 
L 30.58 485.5208 
z
" clip-path="url(#pe6d4a0363a)" style="fill: #9467bd; opacity: 0.8; stroke: #9467bd; stroke-linejoin: miter"/>
   </g>
   <g id="patch_53">
    <path d="M 30.58 476.63084 
L 229.323268 476.63084 
L 229.323268 470.7042 
L 30.58 470.7042 
z
" clip-path="url(#pe6d4a0363a)" style="fill: #9467bd; opacity: 0.8; stroke: #9467bd; stroke-linejoin: miter"/>
   </g>
   <g id="patch_54">
    <path d="M 30.58 461.81424 
L 200.931373 461.81424 
L 200.931373 455.8876 
L 30.58 455.8876 
z
" clip-path="url(#pe6d4a0363a)" style="fill: #9467bd; opacity: 0.8; stroke: #9467bd; stroke-linejoin: miter"/>
   </g>
   <g id="patch_55">
    <path d="M 30.58 446.99764 
L 172.539477 446.99764 
L 172.539477 441.071 
L 30.58 441.071 
z
" clip-path="url(#pe6d4a0363a)" style="fill: #9467bd; opacity: 0.8; stroke: #9467bd; stroke-linejoin: miter"/>
   </g>
   <g id="patch_56">
    <path d="M 30.58 432.18104 
L 144.147582 432.18104 
L 144.147582 426.2544 
L 30.58 426.2544 
z
" clip-path="url(#pe6d4a0363a)" style="fill: #9467bd; opacity: 0.8; stroke: #9467bd; stroke-linejoin: miter"/>
   </g>
   <g id="patch_57">
    <path d="M 30.58 417.36444 
L 115.755686 417.36444 
L 115.755686 411.4378 
L 30.58 411.4378 
z
" clip-path="url(#pe6d4a0363a)" style="fill: #9467bd; opacity: 0.8; stroke: #9467bd; stroke-linejoin: miter"/>
   </g>
   <g id="patch_58">
    <path d="M 30.58 402.54784 
L 87.363791 402.54784 
L 87.363791 396.6212 
L 30.58 396.6212 
z
" clip-path="url(#pe6d4a0363a)" style="fill: #9467bd; opacity: 0.8; stroke: #9467bd; stroke-linejoin: miter"/>
   </g>
   <g id="patch_59">
    <path d="M 30.58 387.73124 
L 58.971895 387.73124 
L 58.971895 381.8046 
L 30.58 381.8046 
z
" clip-path="url(#pe6d4a0363a)" style="fill: #9467bd; opacity: 0.8; stroke: #9467bd; stroke-linejoin: miter"/>
   </g>
   <g id="patch_60">
    <path d="M 30.58 648.5034 
L 60.154891 648.5034 
L 60.154891 642.57676 
L 30.58 642.57676 
z
" clip-path="url(#pe6d4a0363a)" style="fill: #2ca02c; opacity: 0.8; stroke: #2ca02c; stroke-linejoin: miter"/>
   </g>
   <g id="patch_61">
    <path d="M 30.58 633.6868 
L 89.729782 633.6868 
L 89.729782 627.76016 
L 30.58 627.76016 
z
" clip-path="url(#pe6d4a0363a)" style="fill: #2ca02c; opacity: 0.8; stroke: #2ca02c; stroke-linejoin: miter"/>
   </g>
   <g id="patch_62">
    <path d="M 30.58 618.8702 
L 119.304673 618.8702 
L 119.304673 612.94356 
L 30.58 612.94356 
z
" clip-path="url(#pe6d4a0363a)" style="fill: #2ca02c; opacity: 0.8; stroke: #2ca02c; stroke-linejoin: miter"/>
   </g>
   <g id="patch_63">
    <path d="M 30.58 604.0536 
L 148.879565 604.0536 
L 148.879565 598.12696 
L 30.58 598.12696 
z
" clip-path="url(#pe6d4a0363a)" style="fill: #2ca02c; opacity: 0.8; stroke: #2ca02c; stroke-linejoin: miter"/>
   </g>
   <g id="patch_64">
    <path d="M 30.58 589.237 
L 178.454456 589.237 
L 178.454456 583.31036 
L 30.58 583.31036 
z
" clip-path="url(#pe6d4a0363a)" style="fill: #2ca02c; opacity: 0.8; stroke: #2ca02c; stroke-linejoin: miter"/>
   </g>
   <g id="patch_65">
    <path d="M 30.58 574.4204 
L 208.029347 574.4204 
L 208.029347 568.49376 
L 30.58 568.49376 
z
" clip-path="url(#pe6d4a0363a)" style="fill: #2ca02c; opacity: 0.8; stroke: #2ca02c; stroke-linejoin: miter"/>
   </g>
   <g id="patch_66">
    <path d="M 30.58 559.6038 
L 237.604238 559.6038 
L 237.604238 553.67716 
L 30.58 553.67716 
z
" clip-path="url(#pe6d4a0363a)" style="fill: #2ca02c; opacity: 0.8; stroke: #2ca02c; stroke-linejoin: miter"/>
   </g>
   <g id="patch_67">
    <path d="M 30.58 544.7872 
L 267.179129 544.7872 
L 267.179129 538.86056 
L 30.58 538.86056 
z
" clip-path="url(#pe6d4a0363a)" style="fill: #2ca02c; opacity: 0.8; stroke: #2ca02c; stroke-linejoin: miter"/>
   </g>
   <g id="patch_68">
    <path d="M 30.58 529.9706 
L 267.179129 529.9706 
L 267.179129 524.04396 
L 30.58 524.04396 
z
" clip-path="url(#pe6d4a0363a)" style="fill: #2ca02c; opacity: 0.8; stroke: #2ca02c; stroke-linejoin: miter"/>
   </g>
   <g id="patch_69">
    <path d="M 30.58 515.154 
L 267.179129 515.154 
L 267.179129 509.22736 
L 30.58 509.22736 
z
" clip-path="url(#pe6d4a0363a)" style="fill: #2ca02c; opacity: 0.8; stroke: #2ca02c; stroke-linejoin: miter"/>
   </g>
   <g id="patch_70">
    <path d="M 30.58 500.3374 
L 267.179129 500.3374 
L 267.179129 494.41076 
L 30.58 494.41076 
z
" clip-path="url(#pe6d4a0363a)" style="fill: #2ca02c; opacity: 0.8; stroke: #2ca02c; stroke-linejoin: miter"/>
   </g>
   <g id="patch_71">
    <path d="M 30.58 485.5208 
L 267.179129 485.5208 
L 267.179129 479.59416 
L 30.58 479.59416 
z
" clip-path="url(#pe6d4a0363a)" style="fill: #2ca02c; opacity: 0.8; stroke: #2ca02c; stroke-linejoin: miter"/>
   </g>
   <g id="patch_72">
    <path d="M 30.58 470.7042 
L 237.604238 470.7042 
L 237.604238 464.77756 
L 30.58 464.77756 
z
" clip-path="url(#pe6d4a0363a)" style="fill: #2ca02c; opacity: 0.8; stroke: #2ca02c; stroke-linejoin: miter"/>
   </g>
   <g id="patch_73">
    <path d="M 30.58 455.8876 
L 208.029347 455.8876 
L 208.029347 449.96096 
L 30.58 449.96096 
z
" clip-path="url(#pe6d4a0363a)" style="fill: #2ca02c; opacity: 0.8; stroke: #2ca02c; stroke-linejoin: miter"/>
   </g>
   <g id="patch_74">
    <path d="M 30.58 441.071 
L 178.454456 441.071 
L 178.454456 435.14436 
L 30.58 435.14436 
z
" clip-path="url(#pe6d4a0363a)" style="fill: #2ca02c; opacity: 0.8; stroke: #2ca02c; stroke-linejoin: miter"/>
   </g>
   <g id="patch_75">
    <path d="M 30.58 426.2544 
L 148.879565 426.2544 
L 148.879565 420.32776 
L 30.58 420.32776 
z
" clip-path="url(#pe6d4a0363a)" style="fill: #2ca02c; opacity: 0.8; stroke: #2ca02c; stroke-linejoin: miter"/>
   </g>
   <g id="patch_76">
    <path d="M 30.58 411.4378 
L 119.304673 411.4378 
L 119.304673 405.51116 
L 30.58 405.51116 
z
" clip-path="url(#pe6d4a0363a)" style="fill: #2ca02c; opacity: 0.8; stroke: #2ca02c; stroke-linejoin: miter"/>
   </g>
   <g id="patch_77">
    <path d="M 30.58 396.6212 
L 89.729782 396.6212 
L 89.729782 390.69456 
L 30.58 390.69456 
z
" clip-path="url(#pe6d4a0363a)" style="fill: #2ca02c; opacity: 0.8; stroke: #2ca02c; stroke-linejoin: miter"/>
   </g>
   <g id="patch_78">
    <path d="M 30.58 381.8046 
L 60.154891 381.8046 
L 60.154891 375.87796 
L 30.58 375.87796 
z
" clip-path="url(#pe6d4a0363a)" style="fill: #2ca02c; opacity: 0.8; stroke: #2ca02c; stroke-linejoin: miter"/>
   </g>
   <g id="matplotlib.axis_3">
    <g id="xtick_1">
     <g id="line2d_1">
      <defs>
       <path id="m077fd47cff" d="M 0 0 
L 0 3.5 
" style="stroke: #000000; stroke-width: 0.8"/>
      </defs>
      <g>
       <use xlink:href="#m077fd47cff" x="30.58" y="663.32" style="stroke: #000000; stroke-width: 0.8"/>
      </g>
     </g>
     <g id="text_30">
      <!-- 0.0% -->
      <g transform="translate(17.877656 677.918437) scale(0.1 -0.1)">
       <defs>
        <path id="DejaVuSans-2e" d="M 684 794 
L 1344 794 
L 1344 0 
L 684 0 
L 684 794 
z
" transform="scale(0.015625)"/>
        <path id="DejaVuSans-25" d="M 4653 2053 
Q 4381 2053 4226 1822 
Q 4072 1591 4072 1178 
Q 4072 772 4226 539 
Q 4381 306 4653 306 
Q 4919 306 5073 539 
Q 5228 772 5228 1178 
Q 5228 1588 5073 1820 
Q 4919 2053 4653 2053 
z
M 4653 2450 
Q 5147 2450 5437 2106 
Q 5728 1763 5728 1178 
Q 5728 594 5436 251 
Q 5144 -91 4653 -91 
Q 4153 -91 3862 251 
Q 3572 594 3572 1178 
Q 3572 1766 3864 2108 
Q 4156 2450 4653 2450 
z
M 1428 4353 
Q 1159 4353 1004 4120 
Q 850 3888 850 3481 
Q 850 3069 1003 2837 
Q 1156 2606 1428 2606 
Q 1700 2606 1854 2837 
Q 2009 3069 2009 3481 
Q 2009 3884 1853 4118 
Q 1697 4353 1428 4353 
z
M 4250 4750 
L 4750 4750 
L 1831 -91 
L 1331 -91 
L 4250 4750 
z
M 1428 4750 
Q 1922 4750 2215 4408 
Q 2509 4066 2509 3481 
Q 2509 2891 2217 2550 
Q 1925 2209 1428 2209 
Q 931 2209 642 2551 
Q 353 2894 353 3481 
Q 353 4063 643 4406 
Q 934 4750 1428 4750 
z
" transform="scale(0.015625)"/>
       </defs>
       <use xlink:href="#DejaVuSans-30"/>
       <use xlink:href="#DejaVuSans-2e" transform="translate(63.623047 0)"/>
       <use xlink:href="#DejaVuSans-30" transform="translate(95.410156 0)"/>
       <use xlink:href="#DejaVuSans-25" transform="translate(159.033203 0)"/>
      </g>
     </g>
    </g>
    <g id="xtick_2">
     <g id="line2d_2">
      <g>
       <use xlink:href="#m077fd47cff" x="87.363791" y="663.32" style="stroke: #000000; stroke-width: 0.8"/>
      </g>
     </g>
     <g id="text_31">
      <!-- 2.0% -->
      <g transform="translate(74.661447 677.918437) scale(0.1 -0.1)">
       <use xlink:href="#DejaVuSans-32"/>
       <use xlink:href="#DejaVuSans-2e" transform="translate(63.623047 0)"/>
       <use xlink:href="#DejaVuSans-30" transform="translate(95.410156 0)"/>
       <use xlink:href="#DejaVuSans-25" transform="translate(159.033203 0)"/>
      </g>
     </g>
    </g>
    <g id="xtick_3">
     <g id="line2d_3">
      <g>
       <use xlink:href="#m077fd47cff" x="144.147582" y="663.32" style="stroke: #000000; stroke-width: 0.8"/>
      </g>
     </g>
     <g id="text_32">
      <!-- 4.0% -->
      <g transform="translate(131.445238 677.918437) scale(0.1 -0.1)">
       <use xlink:href="#DejaVuSans-34"/>
       <use xlink:href="#DejaVuSans-2e" transform="translate(63.623047 0)"/>
       <use xlink:href="#DejaVuSans-30" transform="translate(95.410156 0)"/>
       <use xlink:href="#DejaVuSans-25" transform="translate(159.033203 0)"/>
      </g>
     </g>
    </g>
    <g id="xtick_4">
     <g id="line2d_4">
      <g>
       <use xlink:href="#m077fd47cff" x="200.931373" y="663.32" style="stroke: #000000; stroke-width: 0.8"/>
      </g>
     </g>
     <g id="text_33">
      <!-- 6.0% -->
      <g transform="translate(188.229029 677.918437) scale(0.1 -0.1)">
       <use xlink:href="#DejaVuSans-36"/>
       <use xlink:href="#DejaVuSans-2e" transform="translate(63.623047 0)"/>
       <use xlink:href="#DejaVuSans-30" transform="translate(95.410156 0)"/>
       <use xlink:href="#DejaVuSans-25" transform="translate(159.033203 0)"/>
      </g>
     </g>
    </g>
    <g id="xtick_5">
     <g id="line2d_5">
      <g>
       <use xlink:href="#m077fd47cff" x="257.715164" y="663.32" style="stroke: #000000; stroke-width: 0.8"/>
      </g>
     </g>
     <g id="text_34">
      <!-- 8.0% -->
      <g transform="translate(245.01282 677.918437) scale(0.1 -0.1)">
       <use xlink:href="#DejaVuSans-38"/>
       <use xlink:href="#DejaVuSans-2e" transform="translate(63.623047 0)"/>
       <use xlink:href="#DejaVuSans-30" transform="translate(95.410156 0)"/>
       <use xlink:href="#DejaVuSans-25" transform="translate(159.033203 0)"/>
      </g>
     </g>
    </g>
    <g id="xtick_6">
     <g id="line2d_6">
      <g>
       <use xlink:href="#m077fd47cff" x="314.498955" y="663.32" style="stroke: #000000; stroke-width: 0.8"/>
      </g>
     </g>
     <g id="text_35">
      <!-- 10.0% -->
      <g transform="translate(298.615361 677.918437) scale(0.1 -0.1)">
       <use xlink:href="#DejaVuSans-31"/>
       <use xlink:href="#DejaVuSans-30" transform="translate(63.623047 0)"/>
       <use xlink:href="#DejaVuSans-2e" transform="translate(127.246094 0)"/>
       <use xlink:href="#DejaVuSans-30" transform="translate(159.033203 0)"/>
       <use xlink:href="#DejaVuSans-25" transform="translate(222.65625 0)"/>
      </g>
     </g>
    </g>
   </g>
   <g id="matplotlib.axis_4">
    <g id="ytick_1">
     <g id="line2d_7">
      <defs>
       <path id="md376376116" d="M 0 0 
L -3.5 0 
" style="stroke: #000000; stroke-width: 0.8"/>
      </defs>
      <g>
       <use xlink:href="#md376376116" x="30.58" y="648.5034" style="stroke: #000000; stroke-width: 0.8"/>
      </g>
     </g>
     <g id="text_36">
      <!-- 2 -->
      <g transform="translate(17.2175 652.302619) scale(0.1 -0.1)">
       <use xlink:href="#DejaVuSans-32"/>
      </g>
     </g>
    </g>
    <g id="ytick_2">
     <g id="line2d_8">
      <g>
       <use xlink:href="#md376376116" x="30.58" y="633.6868" style="stroke: #000000; stroke-width: 0.8"/>
      </g>
     </g>
     <g id="text_37">
      <!-- 3 -->
      <g transform="translate(17.2175 637.486019) scale(0.1 -0.1)">
       <use xlink:href="#DejaVuSans-33"/>
      </g>
     </g>
    </g>
    <g id="ytick_3">
     <g id="line2d_9">
      <g>
       <use xlink:href="#md376376116" x="30.58" y="618.8702" style="stroke: #000000; stroke-width: 0.8"/>
      </g>
     </g>
     <g id="text_38">
      <!-- 4 -->
      <g transform="translate(17.2175 622.669419) scale(0.1 -0.1)">
       <use xlink:href="#DejaVuSans-34"/>
      </g>
     </g>
    </g>
    <g id="ytick_4">
     <g id="line2d_10">
      <g>
       <use xlink:href="#md376376116" x="30.58" y="604.0536" style="stroke: #000000; stroke-width: 0.8"/>
      </g>
     </g>
     <g id="text_39">
      <!-- 5 -->
      <g transform="translate(17.2175 607.852819) scale(0.1 -0.1)">
       <use xlink:href="#DejaVuSans-35"/>
      </g>
     </g>
    </g>
    <g id="ytick_5">
     <g id="line2d_11">
      <g>
       <use xlink:href="#md376376116" x="30.58" y="589.237" style="stroke: #000000; stroke-width: 0.8"/>
      </g>
     </g>
     <g id="text_40">
      <!-- 6 -->
      <g transform="translate(17.2175 593.036219) scale(0.1 -0.1)">
       <use xlink:href="#DejaVuSans-36"/>
      </g>
     </g>
    </g>
    <g id="ytick_6">
     <g id="line2d_12">
      <g>
       <use xlink:href="#md376376116" x="30.58" y="574.4204" style="stroke: #000000; stroke-width: 0.8"/>
      </g>
     </g>
     <g id="text_41">
      <!-- 7 -->
      <g transform="translate(17.2175 578.219619) scale(0.1 -0.1)">
       <use xlink:href="#DejaVuSans-37"/>
      </g>
     </g>
    </g>
    <g id="ytick_7">
     <g id="line2d_13">
      <g>
       <use xlink:href="#md376376116" x="30.58" y="559.6038" style="stroke: #000000; stroke-width: 0.8"/>
      </g>
     </g>
     <g id="text_42">
      <!-- 8 -->
      <g transform="translate(17.2175 563.403019) scale(0.1 -0.1)">
       <use xlink:href="#DejaVuSans-38"/>
      </g>
     </g>
    </g>
    <g id="ytick_8">
     <g id="line2d_14">
      <g>
       <use xlink:href="#md376376116" x="30.58" y="544.7872" style="stroke: #000000; stroke-width: 0.8"/>
      </g>
     </g>
     <g id="text_43">
      <!-- 9 -->
      <g transform="translate(17.2175 548.586419) scale(0.1 -0.1)">
       <use xlink:href="#DejaVuSans-39"/>
      </g>
     </g>
    </g>
    <g id="ytick_9">
     <g id="line2d_15">
      <g>
       <use xlink:href="#md376376116" x="30.58" y="529.9706" style="stroke: #000000; stroke-width: 0.8"/>
      </g>
     </g>
     <g id="text_44">
      <!-- 10 -->
      <g transform="translate(10.855 533.769819) scale(0.1 -0.1)">
       <use xlink:href="#DejaVuSans-31"/>
       <use xlink:href="#DejaVuSans-30" transform="translate(63.623047 0)"/>
      </g>
     </g>
    </g>
    <g id="ytick_10">
     <g id="line2d_16">
      <g>
       <use xlink:href="#md376376116" x="30.58" y="515.154" style="stroke: #000000; stroke-width: 0.8"/>
      </g>
     </g>
     <g id="text_45">
      <!-- 11 -->
      <g transform="translate(10.855 518.953219) scale(0.1 -0.1)">
       <use xlink:href="#DejaVuSans-31"/>
       <use xlink:href="#DejaVuSans-31" transform="translate(63.623047 0)"/>
      </g>
     </g>
    </g>
    <g id="ytick_11">
     <g id="line2d_17">
      <g>
       <use xlink:href="#md376376116" x="30.58" y="500.3374" style="stroke: #000000; stroke-width: 0.8"/>
      </g>
     </g>
     <g id="text_46">
      <!-- 12 -->
      <g transform="translate(10.855 504.136619) scale(0.1 -0.1)">
       <use xlink:href="#DejaVuSans-31"/>
       <use xlink:href="#DejaVuSans-32" transform="translate(63.623047 0)"/>
      </g>
     </g>
    </g>
    <g id="ytick_12">
     <g id="line2d_18">
      <g>
       <use xlink:href="#md376376116" x="30.58" y="485.5208" style="stroke: #000000; stroke-width: 0.8"/>
      </g>
     </g>
     <g id="text_47">
      <!-- 13 -->
      <g transform="translate(10.855 489.320019) scale(0.1 -0.1)">
       <use xlink:href="#DejaVuSans-31"/>
       <use xlink:href="#DejaVuSans-33" transform="translate(63.623047 0)"/>
      </g>
     </g>
    </g>
    <g id="ytick_13">
     <g id="line2d_19">
      <g>
       <use xlink:href="#md376376116" x="30.58" y="470.7042" style="stroke: #000000; stroke-width: 0.8"/>
      </g>
     </g>
     <g id="text_48">
      <!-- 14 -->
      <g transform="translate(10.855 474.503419) scale(0.1 -0.1)">
       <use xlink:href="#DejaVuSans-31"/>
       <use xlink:href="#DejaVuSans-34" transform="translate(63.623047 0)"/>
      </g>
     </g>
    </g>
    <g id="ytick_14">
     <g id="line2d_20">
      <g>
       <use xlink:href="#md376376116" x="30.58" y="455.8876" style="stroke: #000000; stroke-width: 0.8"/>
      </g>
     </g>
     <g id="text_49">
      <!-- 15 -->
      <g transform="translate(10.855 459.686819) scale(0.1 -0.1)">
       <use xlink:href="#DejaVuSans-31"/>
       <use xlink:href="#DejaVuSans-35" transform="translate(63.623047 0)"/>
      </g>
     </g>
    </g>
    <g id="ytick_15">
     <g id="line2d_21">
      <g>
       <use xlink:href="#md376376116" x="30.58" y="441.071" style="stroke: #000000; stroke-width: 0.8"/>
      </g>
     </g>
     <g id="text_50">
      <!-- 16 -->
      <g transform="translate(10.855 444.870219) scale(0.1 -0.1)">
       <use xlink:href="#DejaVuSans-31"/>
       <use xlink:href="#DejaVuSans-36" transform="translate(63.623047 0)"/>
      </g>
     </g>
    </g>
    <g id="ytick_16">
     <g id="line2d_22">
      <g>
       <use xlink:href="#md376376116" x="30.58" y="426.2544" style="stroke: #000000; stroke-width: 0.8"/>
      </g>
     </g>
     <g id="text_51">
      <!-- 17 -->
      <g transform="translate(10.855 430.053619) scale(0.1 -0.1)">
       <use xlink:href="#DejaVuSans-31"/>
       <use xlink:href="#DejaVuSans-37" transform="translate(63.623047 0)"/>
      </g>
     </g>
    </g>
    <g id="ytick_17">
     <g id="line2d_23">
      <g>
       <use xlink:href="#md376376116" x="30.58" y="411.4378" style="stroke: #000000; stroke-width: 0.8"/>
      </g>
     </g>
     <g id="text_52">
      <!-- 18 -->
      <g transform="translate(10.855 415.237019) scale(0.1 -0.1)">
       <use xlink:href="#DejaVuSans-31"/>
       <use xlink:href="#DejaVuSans-38" transform="translate(63.623047 0)"/>
      </g>
     </g>
    </g>
    <g id="ytick_18">
     <g id="line2d_24">
      <g>
       <use xlink:href="#md376376116" x="30.58" y="396.6212" style="stroke: #000000; stroke-width: 0.8"/>
      </g>
     </g>
     <g id="text_53">
      <!-- 19 -->
      <g transform="translate(10.855 400.420419) scale(0.1 -0.1)">
       <use xlink:href="#DejaVuSans-31"/>
       <use xlink:href="#DejaVuSans-39" transform="translate(63.623047 0)"/>
      </g>
     </g>
    </g>
    <g id="ytick_19">
     <g id="line2d_25">
      <g>
       <use xlink:href="#md376376116" x="30.58" y="381.8046" style="stroke: #000000; stroke-width: 0.8"/>
      </g>
     </g>
     <g id="text_54">
      <!-- 20 -->
      <g transform="translate(10.855 385.603819) scale(0.1 -0.1)">
       <use xlink:href="#DejaVuSans-32"/>
       <use xlink:href="#DejaVuSans-30" transform="translate(63.623047 0)"/>
      </g>
     </g>
    </g>
   </g>
   <g id="patch_79">
    <path d="M 30.58 663.32 
L 30.58 366.988 
" style="fill: none; stroke: #000000; stroke-width: 0.8; stroke-linejoin: miter; stroke-linecap: square"/>
   </g>
   <g id="patch_80">
    <path d="M 328.694903 663.32 
L 328.694903 366.988 
" style="fill: none; stroke: #000000; stroke-width: 0.8; stroke-linejoin: miter; stroke-linecap: square"/>
   </g>
   <g id="patch_81">
    <path d="M 30.58 663.32 
L 328.694903 663.32 
" style="fill: none; stroke: #000000; stroke-width: 0.8; stroke-linejoin: miter; stroke-linecap: square"/>
   </g>
   <g id="patch_82">
    <path d="M 30.58 366.988 
L 328.694903 366.988 
" style="fill: none; stroke: #000000; stroke-width: 0.8; stroke-linejoin: miter; stroke-linecap: square"/>
   </g>
   <g id="legend_1">
    <g id="patch_83">
     <path d="M 249.53084 404.34425 
L 321.694903 404.34425 
Q 323.694903 404.34425 323.694903 402.34425 
L 323.694903 373.988 
Q 323.694903 371.988 321.694903 371.988 
L 249.53084 371.988 
Q 247.53084 371.988 247.53084 373.988 
L 247.53084 402.34425 
Q 247.53084 404.34425 249.53084 404.34425 
z
" style="fill: #ffffff; opacity: 0.8; stroke: #cccccc; stroke-linejoin: miter"/>
    </g>
    <g id="patch_84">
     <path d="M 251.53084 383.586437 
L 271.53084 383.586437 
L 271.53084 376.586437 
L 251.53084 376.586437 
z
" style="fill: #9467bd; opacity: 0.8; stroke: #9467bd; stroke-linejoin: miter"/>
    </g>
    <g id="text_55">
     <!-- 2d10 -->
     <g transform="translate(279.53084 383.586437) scale(0.1 -0.1)">
      <defs>
       <path id="DejaVuSans-64" d="M 2906 2969 
L 2906 4863 
L 3481 4863 
L 3481 0 
L 2906 0 
L 2906 525 
Q 2725 213 2448 61 
Q 2172 -91 1784 -91 
Q 1150 -91 751 415 
Q 353 922 353 1747 
Q 353 2572 751 3078 
Q 1150 3584 1784 3584 
Q 2172 3584 2448 3432 
Q 2725 3281 2906 2969 
z
M 947 1747 
Q 947 1113 1208 752 
Q 1469 391 1925 391 
Q 2381 391 2643 752 
Q 2906 1113 2906 1747 
Q 2906 2381 2643 2742 
Q 2381 3103 1925 3103 
Q 1469 3103 1208 2742 
Q 947 2381 947 1747 
z
" transform="scale(0.015625)"/>
      </defs>
      <use xlink:href="#DejaVuSans-32"/>
      <use xlink:href="#DejaVuSans-64" transform="translate(63.623047 0)"/>
      <use xlink:href="#DejaVuSans-31" transform="translate(127.099609 0)"/>
      <use xlink:href="#DejaVuSans-30" transform="translate(190.722656 0)"/>
     </g>
    </g>
    <g id="patch_85">
     <path d="M 251.53084 398.264562 
L 271.53084 398.264562 
L 271.53084 391.264562 
L 251.53084 391.264562 
z
" style="fill: #2ca02c; opacity: 0.8; stroke: #2ca02c; stroke-linejoin: miter"/>
    </g>
    <g id="text_56">
     <!-- d8+d12 -->
     <g transform="translate(279.53084 398.264562) scale(0.1 -0.1)">
      <defs>
       <path id="DejaVuSans-2b" d="M 2944 4013 
L 2944 2272 
L 4684 2272 
L 4684 1741 
L 2944 1741 
L 2944 0 
L 2419 0 
L 2419 1741 
L 678 1741 
L 678 2272 
L 2419 2272 
L 2419 4013 
L 2944 4013 
z
" transform="scale(0.015625)"/>
      </defs>
      <use xlink:href="#DejaVuSans-64"/>
      <use xlink:href="#DejaVuSans-38" transform="translate(63.476562 0)"/>
      <use xlink:href="#DejaVuSans-2b" transform="translate(127.099609 0)"/>
      <use xlink:href="#DejaVuSans-64" transform="translate(210.888672 0)"/>
      <use xlink:href="#DejaVuSans-31" transform="translate(274.365234 0)"/>
      <use xlink:href="#DejaVuSans-32" transform="translate(337.988281 0)"/>
     </g>
    </g>
   </g>
  </g>
  <g id="axes_3">
   <g id="patch_86">
    <path d="M 382.285097 663.32 
L 680.4 663.32 
L 680.4 366.988 
L 382.285097 366.988 
L 382.285097 663.32 
z
" style="fill: none"/>
   </g>
   <g id="matplotlib.axis_5">
    <g id="xtick_7">
     <g id="line2d_26">
      <g>
       <use xlink:href="#m077fd47cff" x="390.130226" y="663.32" style="stroke: #000000; stroke-width: 0.8"/>
      </g>
     </g>
     <g id="text_57">
      <!-- 2 -->
      <g transform="translate(386.948976 677.918437) scale(0.1 -0.1)">
       <use xlink:href="#DejaVuSans-32"/>
      </g>
     </g>
    </g>
    <g id="xtick_8">
     <g id="line2d_27">
      <g>
       <use xlink:href="#m077fd47cff" x="405.820484" y="663.32" style="stroke: #000000; stroke-width: 0.8"/>
      </g>
     </g>
     <g id="text_58">
      <!-- 3 -->
      <g transform="translate(402.639234 677.918437) scale(0.1 -0.1)">
       <use xlink:href="#DejaVuSans-33"/>
      </g>
     </g>
    </g>
    <g id="xtick_9">
     <g id="line2d_28">
      <g>
       <use xlink:href="#m077fd47cff" x="421.510742" y="663.32" style="stroke: #000000; stroke-width: 0.8"/>
      </g>
     </g>
     <g id="text_59">
      <!-- 4 -->
      <g transform="translate(418.329492 677.918437) scale(0.1 -0.1)">
       <use xlink:href="#DejaVuSans-34"/>
      </g>
     </g>
    </g>
    <g id="xtick_10">
     <g id="line2d_29">
      <g>
       <use xlink:href="#m077fd47cff" x="437.201001" y="663.32" style="stroke: #000000; stroke-width: 0.8"/>
      </g>
     </g>
     <g id="text_60">
      <!-- 5 -->
      <g transform="translate(434.019751 677.918437) scale(0.1 -0.1)">
       <use xlink:href="#DejaVuSans-35"/>
      </g>
     </g>
    </g>
    <g id="xtick_11">
     <g id="line2d_30">
      <g>
       <use xlink:href="#m077fd47cff" x="452.891259" y="663.32" style="stroke: #000000; stroke-width: 0.8"/>
      </g>
     </g>
     <g id="text_61">
      <!-- 6 -->
      <g transform="translate(449.710009 677.918437) scale(0.1 -0.1)">
       <use xlink:href="#DejaVuSans-36"/>
      </g>
     </g>
    </g>
    <g id="xtick_12">
     <g id="line2d_31">
      <g>
       <use xlink:href="#m077fd47cff" x="468.581517" y="663.32" style="stroke: #000000; stroke-width: 0.8"/>
      </g>
     </g>
     <g id="text_62">
      <!-- 7 -->
      <g transform="translate(465.400267 677.918437) scale(0.1 -0.1)">
       <use xlink:href="#DejaVuSans-37"/>
      </g>
     </g>
    </g>
    <g id="xtick_13">
     <g id="line2d_32">
      <g>
       <use xlink:href="#m077fd47cff" x="484.271775" y="663.32" style="stroke: #000000; stroke-width: 0.8"/>
      </g>
     </g>
     <g id="text_63">
      <!-- 8 -->
      <g transform="translate(481.090525 677.918437) scale(0.1 -0.1)">
       <use xlink:href="#DejaVuSans-38"/>
      </g>
     </g>
    </g>
    <g id="xtick_14">
     <g id="line2d_33">
      <g>
       <use xlink:href="#m077fd47cff" x="499.962033" y="663.32" style="stroke: #000000; stroke-width: 0.8"/>
      </g>
     </g>
     <g id="text_64">
      <!-- 9 -->
      <g transform="translate(496.780783 677.918437) scale(0.1 -0.1)">
       <use xlink:href="#DejaVuSans-39"/>
      </g>
     </g>
    </g>
    <g id="xtick_15">
     <g id="line2d_34">
      <g>
       <use xlink:href="#m077fd47cff" x="515.652291" y="663.32" style="stroke: #000000; stroke-width: 0.8"/>
      </g>
     </g>
     <g id="text_65">
      <!-- 10 -->
      <g transform="translate(509.289791 677.918437) scale(0.1 -0.1)">
       <use xlink:href="#DejaVuSans-31"/>
       <use xlink:href="#DejaVuSans-30" transform="translate(63.623047 0)"/>
      </g>
     </g>
    </g>
    <g id="xtick_16">
     <g id="line2d_35">
      <g>
       <use xlink:href="#m077fd47cff" x="531.342549" y="663.32" style="stroke: #000000; stroke-width: 0.8"/>
      </g>
     </g>
     <g id="text_66">
      <!-- 11 -->
      <g transform="translate(524.980049 677.918437) scale(0.1 -0.1)">
       <use xlink:href="#DejaVuSans-31"/>
       <use xlink:href="#DejaVuSans-31" transform="translate(63.623047 0)"/>
      </g>
     </g>
    </g>
    <g id="xtick_17">
     <g id="line2d_36">
      <g>
       <use xlink:href="#m077fd47cff" x="547.032807" y="663.32" style="stroke: #000000; stroke-width: 0.8"/>
      </g>
     </g>
     <g id="text_67">
      <!-- 12 -->
      <g transform="translate(540.670307 677.918437) scale(0.1 -0.1)">
       <use xlink:href="#DejaVuSans-31"/>
       <use xlink:href="#DejaVuSans-32" transform="translate(63.623047 0)"/>
      </g>
     </g>
    </g>
    <g id="xtick_18">
     <g id="line2d_37">
      <g>
       <use xlink:href="#m077fd47cff" x="562.723065" y="663.32" style="stroke: #000000; stroke-width: 0.8"/>
      </g>
     </g>
     <g id="text_68">
      <!-- 13 -->
      <g transform="translate(556.360565 677.918437) scale(0.1 -0.1)">
       <use xlink:href="#DejaVuSans-31"/>
       <use xlink:href="#DejaVuSans-33" transform="translate(63.623047 0)"/>
      </g>
     </g>
    </g>
    <g id="xtick_19">
     <g id="line2d_38">
      <g>
       <use xlink:href="#m077fd47cff" x="578.413323" y="663.32" style="stroke: #000000; stroke-width: 0.8"/>
      </g>
     </g>
     <g id="text_69">
      <!-- 14 -->
      <g transform="translate(572.050823 677.918437) scale(0.1 -0.1)">
       <use xlink:href="#DejaVuSans-31"/>
       <use xlink:href="#DejaVuSans-34" transform="translate(63.623047 0)"/>
      </g>
     </g>
    </g>
    <g id="xtick_20">
     <g id="line2d_39">
      <g>
       <use xlink:href="#m077fd47cff" x="594.103581" y="663.32" style="stroke: #000000; stroke-width: 0.8"/>
      </g>
     </g>
     <g id="text_70">
      <!-- 15 -->
      <g transform="translate(587.741081 677.918437) scale(0.1 -0.1)">
       <use xlink:href="#DejaVuSans-31"/>
       <use xlink:href="#DejaVuSans-35" transform="translate(63.623047 0)"/>
      </g>
     </g>
    </g>
    <g id="xtick_21">
     <g id="line2d_40">
      <g>
       <use xlink:href="#m077fd47cff" x="609.793839" y="663.32" style="stroke: #000000; stroke-width: 0.8"/>
      </g>
     </g>
     <g id="text_71">
      <!-- 16 -->
      <g transform="translate(603.431339 677.918437) scale(0.1 -0.1)">
       <use xlink:href="#DejaVuSans-31"/>
       <use xlink:href="#DejaVuSans-36" transform="translate(63.623047 0)"/>
      </g>
     </g>
    </g>
    <g id="xtick_22">
     <g id="line2d_41">
      <g>
       <use xlink:href="#m077fd47cff" x="625.484097" y="663.32" style="stroke: #000000; stroke-width: 0.8"/>
      </g>
     </g>
     <g id="text_72">
      <!-- 17 -->
      <g transform="translate(619.121597 677.918437) scale(0.1 -0.1)">
       <use xlink:href="#DejaVuSans-31"/>
       <use xlink:href="#DejaVuSans-37" transform="translate(63.623047 0)"/>
      </g>
     </g>
    </g>
    <g id="xtick_23">
     <g id="line2d_42">
      <g>
       <use xlink:href="#m077fd47cff" x="641.174355" y="663.32" style="stroke: #000000; stroke-width: 0.8"/>
      </g>
     </g>
     <g id="text_73">
      <!-- 18 -->
      <g transform="translate(634.811855 677.918437) scale(0.1 -0.1)">
       <use xlink:href="#DejaVuSans-31"/>
       <use xlink:href="#DejaVuSans-38" transform="translate(63.623047 0)"/>
      </g>
     </g>
    </g>
    <g id="xtick_24">
     <g id="line2d_43">
      <g>
       <use xlink:href="#m077fd47cff" x="656.864613" y="663.32" style="stroke: #000000; stroke-width: 0.8"/>
      </g>
     </g>
     <g id="text_74">
      <!-- 19 -->
      <g transform="translate(650.502113 677.918437) scale(0.1 -0.1)">
       <use xlink:href="#DejaVuSans-31"/>
       <use xlink:href="#DejaVuSans-39" transform="translate(63.623047 0)"/>
      </g>
     </g>
    </g>
    <g id="xtick_25">
     <g id="line2d_44">
      <g>
       <use xlink:href="#m077fd47cff" x="672.554871" y="663.32" style="stroke: #000000; stroke-width: 0.8"/>
      </g>
     </g>
     <g id="text_75">
      <!-- 20 -->
      <g transform="translate(666.192371 677.918437) scale(0.1 -0.1)">
       <use xlink:href="#DejaVuSans-32"/>
       <use xlink:href="#DejaVuSans-30" transform="translate(63.623047 0)"/>
      </g>
     </g>
    </g>
   </g>
   <g id="matplotlib.axis_6">
    <g id="ytick_20">
     <g id="line2d_45">
      <g>
       <use xlink:href="#md376376116" x="382.285097" y="619.917838" style="stroke: #000000; stroke-width: 0.8"/>
      </g>
     </g>
     <g id="text_76">
      <!-- 2.0% -->
      <g transform="translate(349.88041 623.717057) scale(0.1 -0.1)">
       <use xlink:href="#DejaVuSans-32"/>
       <use xlink:href="#DejaVuSans-2e" transform="translate(63.623047 0)"/>
       <use xlink:href="#DejaVuSans-30" transform="translate(95.410156 0)"/>
       <use xlink:href="#DejaVuSans-25" transform="translate(159.033203 0)"/>
      </g>
     </g>
    </g>
    <g id="ytick_21">
     <g id="line2d_46">
      <g>
       <use xlink:href="#md376376116" x="382.285097" y="560.052788" style="stroke: #000000; stroke-width: 0.8"/>
      </g>
     </g>
     <g id="text_77">
      <!-- 4.0% -->
      <g transform="translate(349.88041 563.852007) scale(0.1 -0.1)">
       <use xlink:href="#DejaVuSans-34"/>
       <use xlink:href="#DejaVuSans-2e" transform="translate(63.623047 0)"/>
       <use xlink:href="#DejaVuSans-30" transform="translate(95.410156 0)"/>
       <use xlink:href="#DejaVuSans-25" transform="translate(159.033203 0)"/>
      </g>
     </g>
    </g>
    <g id="ytick_22">
     <g id="line2d_47">
      <g>
       <use xlink:href="#md376376116" x="382.285097" y="500.187737" style="stroke: #000000; stroke-width: 0.8"/>
      </g>
     </g>
     <g id="text_78">
      <!-- 6.0% -->
      <g transform="translate(349.88041 503.986956) scale(0.1 -0.1)">
       <use xlink:href="#DejaVuSans-36"/>
       <use xlink:href="#DejaVuSans-2e" transform="translate(63.623047 0)"/>
       <use xlink:href="#DejaVuSans-30" transform="translate(95.410156 0)"/>
       <use xlink:href="#DejaVuSans-25" transform="translate(159.033203 0)"/>
      </g>
     </g>
    </g>
    <g id="ytick_23">
     <g id="line2d_48">
      <g>
       <use xlink:href="#md376376116" x="382.285097" y="440.322687" style="stroke: #000000; stroke-width: 0.8"/>
      </g>
     </g>
     <g id="text_79">
      <!-- 8.0% -->
      <g transform="translate(349.88041 444.121906) scale(0.1 -0.1)">
       <use xlink:href="#DejaVuSans-38"/>
       <use xlink:href="#DejaVuSans-2e" transform="translate(63.623047 0)"/>
       <use xlink:href="#DejaVuSans-30" transform="translate(95.410156 0)"/>
       <use xlink:href="#DejaVuSans-25" transform="translate(159.033203 0)"/>
      </g>
     </g>
    </g>
    <g id="ytick_24">
     <g id="line2d_49">
      <g>
       <use xlink:href="#md376376116" x="382.285097" y="380.457636" style="stroke: #000000; stroke-width: 0.8"/>
      </g>
     </g>
     <g id="text_80">
      <!-- 10.0% -->
      <g transform="translate(343.51791 384.256855) scale(0.1 -0.1)">
       <use xlink:href="#DejaVuSans-31"/>
       <use xlink:href="#DejaVuSans-30" transform="translate(63.623047 0)"/>
       <use xlink:href="#DejaVuSans-2e" transform="translate(127.246094 0)"/>
       <use xlink:href="#DejaVuSans-30" transform="translate(159.033203 0)"/>
       <use xlink:href="#DejaVuSans-25" transform="translate(222.65625 0)"/>
      </g>
     </g>
    </g>
   </g>
   <g id="line2d_50">
    <path d="M 390.130226 649.850364 
L 405.820484 619.917838 
L 421.510742 589.985313 
L 437.201001 560.052788 
L 452.891259 530.120263 
L 468.581517 500.187737 
L 484.271775 470.255212 
L 499.962033 440.322687 
L 515.652291 410.390162 
L 531.342549 380.457636 
L 547.032807 410.390162 
L 562.723065 440.322687 
L 578.413323 470.255212 
L 594.103581 500.187737 
L 609.793839 530.120263 
L 625.484097 560.052788 
L 641.174355 589.985313 
L 656.864613 619.917838 
L 672.554871 649.850364 
" clip-path="url(#p15081fcd7e)" style="fill: none; stroke: #9467bd; stroke-opacity: 0.8; stroke-width: 1.5; stroke-linecap: square"/>
    <defs>
     <path id="mb245cd360b" d="M -3 -0 
L 3 3 
L 3 -3 
z
" style="stroke: #9467bd; stroke-opacity: 0.8; stroke-linejoin: miter"/>
    </defs>
    <g clip-path="url(#p15081fcd7e)">
     <use xlink:href="#mb245cd360b" x="390.130226" y="649.850364" style="fill: #9467bd; fill-opacity: 0.8; stroke: #9467bd; stroke-opacity: 0.8; stroke-linejoin: miter"/>
     <use xlink:href="#mb245cd360b" x="405.820484" y="619.917838" style="fill: #9467bd; fill-opacity: 0.8; stroke: #9467bd; stroke-opacity: 0.8; stroke-linejoin: miter"/>
     <use xlink:href="#mb245cd360b" x="421.510742" y="589.985313" style="fill: #9467bd; fill-opacity: 0.8; stroke: #9467bd; stroke-opacity: 0.8; stroke-linejoin: miter"/>
     <use xlink:href="#mb245cd360b" x="437.201001" y="560.052788" style="fill: #9467bd; fill-opacity: 0.8; stroke: #9467bd; stroke-opacity: 0.8; stroke-linejoin: miter"/>
     <use xlink:href="#mb245cd360b" x="452.891259" y="530.120263" style="fill: #9467bd; fill-opacity: 0.8; stroke: #9467bd; stroke-opacity: 0.8; stroke-linejoin: miter"/>
     <use xlink:href="#mb245cd360b" x="468.581517" y="500.187737" style="fill: #9467bd; fill-opacity: 0.8; stroke: #9467bd; stroke-opacity: 0.8; stroke-linejoin: miter"/>
     <use xlink:href="#mb245cd360b" x="484.271775" y="470.255212" style="fill: #9467bd; fill-opacity: 0.8; stroke: #9467bd; stroke-opacity: 0.8; stroke-linejoin: miter"/>
     <use xlink:href="#mb245cd360b" x="499.962033" y="440.322687" style="fill: #9467bd; fill-opacity: 0.8; stroke: #9467bd; stroke-opacity: 0.8; stroke-linejoin: miter"/>
     <use xlink:href="#mb245cd360b" x="515.652291" y="410.390162" style="fill: #9467bd; fill-opacity: 0.8; stroke: #9467bd; stroke-opacity: 0.8; stroke-linejoin: miter"/>
     <use xlink:href="#mb245cd360b" x="531.342549" y="380.457636" style="fill: #9467bd; fill-opacity: 0.8; stroke: #9467bd; stroke-opacity: 0.8; stroke-linejoin: miter"/>
     <use xlink:href="#mb245cd360b" x="547.032807" y="410.390162" style="fill: #9467bd; fill-opacity: 0.8; stroke: #9467bd; stroke-opacity: 0.8; stroke-linejoin: miter"/>
     <use xlink:href="#mb245cd360b" x="562.723065" y="440.322687" style="fill: #9467bd; fill-opacity: 0.8; stroke: #9467bd; stroke-opacity: 0.8; stroke-linejoin: miter"/>
     <use xlink:href="#mb245cd360b" x="578.413323" y="470.255212" style="fill: #9467bd; fill-opacity: 0.8; stroke: #9467bd; stroke-opacity: 0.8; stroke-linejoin: miter"/>
     <use xlink:href="#mb245cd360b" x="594.103581" y="500.187737" style="fill: #9467bd; fill-opacity: 0.8; stroke: #9467bd; stroke-opacity: 0.8; stroke-linejoin: miter"/>
     <use xlink:href="#mb245cd360b" x="609.793839" y="530.120263" style="fill: #9467bd; fill-opacity: 0.8; stroke: #9467bd; stroke-opacity: 0.8; stroke-linejoin: miter"/>
     <use xlink:href="#mb245cd360b" x="625.484097" y="560.052788" style="fill: #9467bd; fill-opacity: 0.8; stroke: #9467bd; stroke-opacity: 0.8; stroke-linejoin: miter"/>
     <use xlink:href="#mb245cd360b" x="641.174355" y="589.985313" style="fill: #9467bd; fill-opacity: 0.8; stroke: #9467bd; stroke-opacity: 0.8; stroke-linejoin: miter"/>
     <use xlink:href="#mb245cd360b" x="656.864613" y="619.917838" style="fill: #9467bd; fill-opacity: 0.8; stroke: #9467bd; stroke-opacity: 0.8; stroke-linejoin: miter"/>
     <use xlink:href="#mb245cd360b" x="672.554871" y="649.850364" style="fill: #9467bd; fill-opacity: 0.8; stroke: #9467bd; stroke-opacity: 0.8; stroke-linejoin: miter"/>
    </g>
   </g>
   <g id="line2d_51">
    <path d="M 390.130226 648.603175 
L 405.820484 617.423461 
L 421.510742 586.243747 
L 437.201001 555.064034 
L 452.891259 523.88432 
L 468.581517 492.704606 
L 484.271775 461.524892 
L 499.962033 430.345178 
L 515.652291 430.345178 
L 531.342549 430.345178 
L 547.032807 430.345178 
L 562.723065 430.345178 
L 578.413323 461.524892 
L 594.103581 492.704606 
L 609.793839 523.88432 
L 625.484097 555.064034 
L 641.174355 586.243747 
L 656.864613 617.423461 
L 672.554871 648.603175 
" clip-path="url(#p15081fcd7e)" style="fill: none; stroke: #2ca02c; stroke-opacity: 0.8; stroke-width: 1.5; stroke-linecap: square"/>
    <defs>
     <path id="mcbb2e8dd28" d="M 3 0 
L -3 -3 
L -3 3 
z
" style="stroke: #2ca02c; stroke-opacity: 0.8; stroke-linejoin: miter"/>
    </defs>
    <g clip-path="url(#p15081fcd7e)">
     <use xlink:href="#mcbb2e8dd28" x="390.130226" y="648.603175" style="fill: #2ca02c; fill-opacity: 0.8; stroke: #2ca02c; stroke-opacity: 0.8; stroke-linejoin: miter"/>
     <use xlink:href="#mcbb2e8dd28" x="405.820484" y="617.423461" style="fill: #2ca02c; fill-opacity: 0.8; stroke: #2ca02c; stroke-opacity: 0.8; stroke-linejoin: miter"/>
     <use xlink:href="#mcbb2e8dd28" x="421.510742" y="586.243747" style="fill: #2ca02c; fill-opacity: 0.8; stroke: #2ca02c; stroke-opacity: 0.8; stroke-linejoin: miter"/>
     <use xlink:href="#mcbb2e8dd28" x="437.201001" y="555.064034" style="fill: #2ca02c; fill-opacity: 0.8; stroke: #2ca02c; stroke-opacity: 0.8; stroke-linejoin: miter"/>
     <use xlink:href="#mcbb2e8dd28" x="452.891259" y="523.88432" style="fill: #2ca02c; fill-opacity: 0.8; stroke: #2ca02c; stroke-opacity: 0.8; stroke-linejoin: miter"/>
     <use xlink:href="#mcbb2e8dd28" x="468.581517" y="492.704606" style="fill: #2ca02c; fill-opacity: 0.8; stroke: #2ca02c; stroke-opacity: 0.8; stroke-linejoin: miter"/>
     <use xlink:href="#mcbb2e8dd28" x="484.271775" y="461.524892" style="fill: #2ca02c; fill-opacity: 0.8; stroke: #2ca02c; stroke-opacity: 0.8; stroke-linejoin: miter"/>
     <use xlink:href="#mcbb2e8dd28" x="499.962033" y="430.345178" style="fill: #2ca02c; fill-opacity: 0.8; stroke: #2ca02c; stroke-opacity: 0.8; stroke-linejoin: miter"/>
     <use xlink:href="#mcbb2e8dd28" x="515.652291" y="430.345178" style="fill: #2ca02c; fill-opacity: 0.8; stroke: #2ca02c; stroke-opacity: 0.8; stroke-linejoin: miter"/>
     <use xlink:href="#mcbb2e8dd28" x="531.342549" y="430.345178" style="fill: #2ca02c; fill-opacity: 0.8; stroke: #2ca02c; stroke-opacity: 0.8; stroke-linejoin: miter"/>
     <use xlink:href="#mcbb2e8dd28" x="547.032807" y="430.345178" style="fill: #2ca02c; fill-opacity: 0.8; stroke: #2ca02c; stroke-opacity: 0.8; stroke-linejoin: miter"/>
     <use xlink:href="#mcbb2e8dd28" x="562.723065" y="430.345178" style="fill: #2ca02c; fill-opacity: 0.8; stroke: #2ca02c; stroke-opacity: 0.8; stroke-linejoin: miter"/>
     <use xlink:href="#mcbb2e8dd28" x="578.413323" y="461.524892" style="fill: #2ca02c; fill-opacity: 0.8; stroke: #2ca02c; stroke-opacity: 0.8; stroke-linejoin: miter"/>
     <use xlink:href="#mcbb2e8dd28" x="594.103581" y="492.704606" style="fill: #2ca02c; fill-opacity: 0.8; stroke: #2ca02c; stroke-opacity: 0.8; stroke-linejoin: miter"/>
     <use xlink:href="#mcbb2e8dd28" x="609.793839" y="523.88432" style="fill: #2ca02c; fill-opacity: 0.8; stroke: #2ca02c; stroke-opacity: 0.8; stroke-linejoin: miter"/>
     <use xlink:href="#mcbb2e8dd28" x="625.484097" y="555.064034" style="fill: #2ca02c; fill-opacity: 0.8; stroke: #2ca02c; stroke-opacity: 0.8; stroke-linejoin: miter"/>
     <use xlink:href="#mcbb2e8dd28" x="641.174355" y="586.243747" style="fill: #2ca02c; fill-opacity: 0.8; stroke: #2ca02c; stroke-opacity: 0.8; stroke-linejoin: miter"/>
     <use xlink:href="#mcbb2e8dd28" x="656.864613" y="617.423461" style="fill: #2ca02c; fill-opacity: 0.8; stroke: #2ca02c; stroke-opacity: 0.8; stroke-linejoin: miter"/>
     <use xlink:href="#mcbb2e8dd28" x="672.554871" y="648.603175" style="fill: #2ca02c; fill-opacity: 0.8; stroke: #2ca02c; stroke-opacity: 0.8; stroke-linejoin: miter"/>
    </g>
   </g>
   <g id="patch_87">
    <path d="M 382.285097 663.32 
L 382.285097 366.988 
" style="fill: none; stroke: #000000; stroke-width: 0.8; stroke-linejoin: miter; stroke-linecap: square"/>
   </g>
   <g id="patch_88">
    <path d="M 680.4 663.32 
L 680.4 366.988 
" style="fill: none; stroke: #000000; stroke-width: 0.8; stroke-linejoin: miter; stroke-linecap: square"/>
   </g>
   <g id="patch_89">
    <path d="M 382.285097 663.32 
L 680.4 663.32 
" style="fill: none; stroke: #000000; stroke-width: 0.8; stroke-linejoin: miter; stroke-linecap: square"/>
   </g>
   <g id="patch_90">
    <path d="M 382.285097 366.988 
L 680.4 366.988 
" style="fill: none; stroke: #000000; stroke-width: 0.8; stroke-linejoin: miter; stroke-linecap: square"/>
   </g>
   <g id="legend_2">
    <g id="patch_91">
     <path d="M 601.235937 404.34425 
L 673.4 404.34425 
Q 675.4 404.34425 675.4 402.34425 
L 675.4 373.988 
Q 675.4 371.988 673.4 371.988 
L 601.235937 371.988 
Q 599.235937 371.988 599.235937 373.988 
L 599.235937 402.34425 
Q 599.235937 404.34425 601.235937 404.34425 
z
" style="fill: #ffffff; opacity: 0.8; stroke: #cccccc; stroke-linejoin: miter"/>
    </g>
    <g id="line2d_52">
     <path d="M 603.235937 380.086437 
L 613.235937 380.086437 
L 623.235937 380.086437 
" style="fill: none; stroke: #9467bd; stroke-opacity: 0.8; stroke-width: 1.5; stroke-linecap: square"/>
     <g>
      <use xlink:href="#mb245cd360b" x="613.235937" y="380.086437" style="fill: #9467bd; fill-opacity: 0.8; stroke: #9467bd; stroke-opacity: 0.8; stroke-linejoin: miter"/>
     </g>
    </g>
    <g id="text_81">
     <!-- 2d10 -->
     <g transform="translate(631.235937 383.586437) scale(0.1 -0.1)">
      <use xlink:href="#DejaVuSans-32"/>
      <use xlink:href="#DejaVuSans-64" transform="translate(63.623047 0)"/>
      <use xlink:href="#DejaVuSans-31" transform="translate(127.099609 0)"/>
      <use xlink:href="#DejaVuSans-30" transform="translate(190.722656 0)"/>
     </g>
    </g>
    <g id="line2d_53">
     <path d="M 603.235937 394.764562 
L 613.235937 394.764562 
L 623.235937 394.764562 
" style="fill: none; stroke: #2ca02c; stroke-opacity: 0.8; stroke-width: 1.5; stroke-linecap: square"/>
     <g>
      <use xlink:href="#mcbb2e8dd28" x="613.235937" y="394.764562" style="fill: #2ca02c; fill-opacity: 0.8; stroke: #2ca02c; stroke-opacity: 0.8; stroke-linejoin: miter"/>
     </g>
    </g>
    <g id="text_82">
     <!-- d8+d12 -->
     <g transform="translate(631.235937 398.264562) scale(0.1 -0.1)">
      <use xlink:href="#DejaVuSans-64"/>
      <use xlink:href="#DejaVuSans-38" transform="translate(63.476562 0)"/>
      <use xlink:href="#DejaVuSans-2b" transform="translate(127.099609 0)"/>
      <use xlink:href="#DejaVuSans-64" transform="translate(210.888672 0)"/>
      <use xlink:href="#DejaVuSans-31" transform="translate(274.365234 0)"/>
      <use xlink:href="#DejaVuSans-32" transform="translate(337.988281 0)"/>
     </g>
    </g>
   </g>
  </g>
 </g>
 <defs>
  <clipPath id="pe6d4a0363a">
   <rect x="30.58" y="366.988" width="298.114903" height="296.332"/>
  </clipPath>
  <clipPath id="p15081fcd7e">
   <rect x="382.285097" y="366.988" width="298.114903" height="296.332"/>
  </clipPath>
 </defs>
</svg>
