<?xml version="1.0" encoding="utf-8" standalone="no"?>
<!DOCTYPE svg PUBLIC "-//W3C//DTD SVG 1.1//EN"
  "http://www.w3.org/Graphics/SVG/1.1/DTD/svg11.dtd">
<svg xmlns:xlink="http://www.w3.org/1999/xlink" width="460.8pt" height="345.6pt" viewBox="0 0 460.8 345.6" xmlns="http://www.w3.org/2000/svg" version="1.1">
 <metadata>
  <rdf:RDF xmlns:dc="http://purl.org/dc/elements/1.1/" xmlns:cc="http://creativecommons.org/ns#" xmlns:rdf="http://www.w3.org/1999/02/22-rdf-syntax-ns#">
   <cc:Work>
    <dc:type rdf:resource="http://purl.org/dc/dcmitype/StillImage"/>
    <dc:format>image/svg+xml</dc:format>
    <dc:creator>
     <cc:Agent>
      <dc:title>Matplotlib, https://matplotlib.org/</dc:title>
     </cc:Agent>
    </dc:creator>
   </cc:Work>
  </rdf:RDF>
 </metadata>
 <defs>
  <style type="text/css">*{stroke-linejoin: round; stroke-linecap: butt}</style>
 </defs>
 <g id="figure_1">
  <g id="patch_1">
   <path d="M 0 345.6 
L 460.8 345.6 
L 460.8 0 
L 0 0 
L 0 345.6 
z
" style="fill: none"/>
  </g>
  <g id="axes_1">
   <g id="patch_2">
    <path d="M 230.4 43.2 
C 226.629488 43.2 222.860771 43.364546 219.104607 43.693168 
C 215.348443 44.02179 211.608409 44.514175 207.895179 45.168918 
L 225.899036 147.273784 
C 226.641682 147.142835 227.389689 147.044358 228.140921 146.978634 
C 228.892154 146.912909 229.645898 146.88 230.4 146.88 
z
" style="fill: #333d99; fill-opacity: 0.75; stroke: #ffffff; stroke-width: 0.5; stroke-linejoin: miter"/>
   </g>
   <g id="patch_3">
    <path d="M 207.895181 45.168918 
C 200.465197 46.479022 193.163789 48.435427 186.07418 51.015837 
C 178.984571 53.596247 172.133812 56.790807 165.599992 60.56311 
L 217.439998 150.352622 
C 218.746762 149.598161 220.116914 148.959249 221.534836 148.443167 
C 222.952758 147.927085 224.413039 147.535804 225.899036 147.273784 
z
" style="fill: #3c59a6; fill-opacity: 0.75; stroke: #ffffff; stroke-width: 0.5; stroke-linejoin: miter"/>
   </g>
   <g id="patch_4">
    <path d="M 165.599992 60.56311 
C 155.791514 66.22604 146.767556 73.15037 138.758963 81.158963 
C 130.75037 89.167556 123.82604 98.191514 118.16311 107.999992 
L 207.952622 159.839998 
C 209.085208 157.878303 210.470074 156.073511 212.071793 154.471793 
C 213.673511 152.870074 215.478303 151.485208 217.439998 150.352622 
z
" style="fill: #4f81ba; fill-opacity: 0.75; stroke: #ffffff; stroke-width: 0.5; stroke-linejoin: miter"/>
   </g>
   <g id="patch_5">
    <path d="M 118.16311 107.999992 
C 110.604198 121.092409 105.394101 135.407034 102.768918 150.295183 
C 100.143735 165.183332 100.143735 180.416663 102.768918 195.304812 
L 204.873784 177.300962 
C 204.348747 174.323333 204.348747 171.276666 204.873784 168.299037 
C 205.39882 165.321407 206.44084 162.458482 207.952622 159.839998 
z
" style="fill: #7fb6d6; fill-opacity: 0.75; stroke: #ffffff; stroke-width: 0.5; stroke-linejoin: miter"/>
   </g>
   <g id="patch_6">
    <path d="M 102.768918 195.304812 
C 106.05504 213.941317 113.383545 231.633888 124.237909 247.135523 
C 135.092273 262.637159 149.211346 275.574899 165.600012 285.036898 
L 217.440002 195.24738 
C 214.162269 193.35498 211.338455 190.767432 209.167582 187.667105 
C 206.996709 184.566778 205.531008 181.028263 204.873784 177.300962 
z
" style="fill: #c3e5f0; fill-opacity: 0.75; stroke: #ffffff; stroke-width: 0.5; stroke-linejoin: miter"/>
   </g>
   <g id="patch_7">
    <path d="M 165.600012 285.036898 
C 185.300233 296.410822 207.652148 302.4 230.400002 302.4 
C 253.147856 302.4 275.499767 296.410822 295.199988 285.036898 
L 243.359998 195.24738 
C 239.419953 197.522164 234.949571 198.72 230.4 198.72 
C 225.85043 198.72 221.380047 197.522164 217.440002 195.24738 
z
" style="fill: #feffc0; fill-opacity: 0.75; stroke: #ffffff; stroke-width: 0.5; stroke-linejoin: miter"/>
   </g>
   <g id="patch_8">
    <path d="M 295.199988 285.036898 
C 311.58867 275.574891 325.707765 262.637128 336.56213 247.135477 
C 347.416494 231.633826 354.744991 213.94124 358.031097 195.304715 
L 255.926219 177.300943 
C 255.268998 181.028248 253.803299 184.566765 251.632426 187.667095 
C 249.461553 190.767426 246.637734 193.354978 243.359998 195.24738 
z
" style="fill: #fdc576; fill-opacity: 0.75; stroke: #ffffff; stroke-width: 0.5; stroke-linejoin: miter"/>
   </g>
   <g id="patch_9">
    <path d="M 358.031097 195.304715 
C 360.656265 180.416579 360.656265 165.18325 358.031074 150.295117 
C 355.405883 135.406984 350.195794 121.092398 342.63689 107.999992 
L 252.847378 159.839998 
C 254.359159 162.45848 255.401177 165.321397 255.926215 168.299023 
C 256.451253 171.27665 256.451253 174.323316 255.926219 177.300943 
z
" style="fill: #f67a49; fill-opacity: 0.75; stroke: #ffffff; stroke-width: 0.5; stroke-linejoin: miter"/>
   </g>
   <g id="patch_10">
    <path d="M 342.63689 107.999992 
C 336.97396 98.191507 330.04963 89.167556 322.041037 81.158963 
C 314.032444 73.15037 305.008439 66.226009 295.19995 60.563079 
L 243.35999 150.352616 
C 245.321688 151.485202 247.126489 152.870074 248.728207 154.471793 
C 250.329926 156.073511 251.714792 157.878301 252.847378 159.839998 
z
" style="fill: #dd3d2d; fill-opacity: 0.75; stroke: #ffffff; stroke-width: 0.5; stroke-linejoin: miter"/>
   </g>
   <g id="patch_11">
    <path d="M 295.19995 60.563079 
C 288.66613 56.790776 281.815371 53.596224 274.725762 51.015821 
C 267.636153 48.435419 260.334739 46.479015 252.904756 45.168911 
L 234.900951 147.273782 
C 236.386948 147.535803 237.847231 147.927084 239.265152 148.443164 
C 240.683074 148.959245 242.053226 149.598155 243.35999 150.352616 
z
" style="fill: #c01a27; fill-opacity: 0.75; stroke: #ffffff; stroke-width: 0.5; stroke-linejoin: miter"/>
   </g>
   <g id="patch_12">
    <path d="M 252.904756 45.168911 
C 249.19153 44.514167 245.451499 44.021783 241.695339 43.693164 
C 237.939179 43.364545 234.170464 43.2 230.399956 43.2 
L 230.399991 146.88 
C 231.154093 146.88 231.907836 146.912909 232.659068 146.978633 
C 233.4103 147.044357 234.158306 147.142833 234.900951 147.273782 
z
" style="fill: #ab0626; fill-opacity: 0.75; stroke: #ffffff; stroke-width: 0.5; stroke-linejoin: miter"/>
   </g>
   <g id="patch_13">
    <path d="M 230.4 62.64 
C 228.975767 62.64 227.551668 62.66762 226.128507 62.722845 
C 224.705345 62.778071 223.283388 62.86089 221.863438 62.971257 
L 226.884945 127.5764 
C 227.46963 127.530955 228.055142 127.496853 228.64115 127.474113 
C 229.227158 127.451373 229.813551 127.44 230.4 127.44 
z
" style="fill: #321543; fill-opacity: 0.75; stroke: #ffffff; stroke-width: 0.5; stroke-linejoin: miter"/>
   </g>
   <g id="patch_14">
    <path d="M 221.863442 62.971257 
C 216.180971 63.412935 210.541337 64.294959 204.995361 65.609377 
C 199.449385 66.923795 194.013774 68.666653 188.737508 70.822247 
L 213.244856 130.809161 
C 215.417436 129.921563 217.655629 129.203915 219.939266 128.662685 
C 222.222903 128.121454 224.545106 127.758268 226.884947 127.5764 
z
" style="fill: #3a2d79; fill-opacity: 0.75; stroke: #ffffff; stroke-width: 0.5; stroke-linejoin: miter"/>
   </g>
   <g id="patch_15">
    <path d="M 188.737508 70.822247 
C 175.51227 76.22535 163.463517 84.149939 153.264055 94.153503 
C 143.064593 104.157067 134.907848 116.049886 129.249307 129.167861 
L 188.749715 154.833825 
C 191.079702 149.432306 194.438362 144.535263 198.63814 140.416148 
C 202.837919 136.297034 207.79917 133.033967 213.244856 130.809161 
z
" style="fill: #4669e0; fill-opacity: 0.75; stroke: #ffffff; stroke-width: 0.5; stroke-linejoin: miter"/>
   </g>
   <g id="patch_16">
    <path d="M 129.249307 129.167861 
C 120.152067 150.257652 117.874437 173.673698 122.736904 196.121318 
C 127.599371 218.568937 139.362635 238.943501 156.371614 254.378329 
L 199.917724 206.391077 
C 192.914026 200.035559 188.070329 191.646033 186.068137 182.402896 
C 184.065945 173.159758 185.003792 163.517857 188.749715 154.833825 
z
" style="fill: #1ccdd8; fill-opacity: 0.75; stroke: #ffffff; stroke-width: 0.5; stroke-linejoin: miter"/>
   </g>
   <g id="patch_17">
    <path d="M 156.371614 254.378329 
C 176.634254 272.765699 203.03817 282.96 230.400001 282.96 
C 257.761834 282.96 284.165769 272.765679 304.428405 254.37831 
L 260.882285 206.391069 
C 252.538846 213.962338 241.666637 218.16 230.400001 218.16 
C 219.133364 218.16 208.261163 213.962347 199.917724 206.391077 
z
" style="fill: #a4fc3c; fill-opacity: 0.75; stroke: #ffffff; stroke-width: 0.5; stroke-linejoin: miter"/>
   </g>
   <g id="patch_18">
    <path d="M 304.428405 254.37831 
C 321.437378 238.943482 333.200629 218.568931 338.063096 196.121314 
C 342.925563 173.673698 340.647933 150.257645 331.550687 129.167858 
L 272.050283 154.833824 
C 275.796208 163.517854 276.734055 173.159758 274.731863 182.402894 
C 272.729671 191.64603 267.885979 200.035551 260.882285 206.391069 
z
" style="fill: #fe992c; fill-opacity: 0.75; stroke: #ffffff; stroke-width: 0.5; stroke-linejoin: miter"/>
   </g>
   <g id="patch_19">
    <path d="M 331.550687 129.167858 
C 325.892139 116.049873 317.735401 104.157054 307.535925 94.153483 
C 297.33645 84.149913 285.287694 76.22533 272.062446 70.822228 
L 247.555125 130.809153 
C 253.000815 133.033959 257.962068 136.297023 262.161852 140.41614 
C 266.361636 144.535257 269.720293 149.432301 272.050283 154.833824 
z
" style="fill: #d02f05; fill-opacity: 0.75; stroke: #ffffff; stroke-width: 0.5; stroke-linejoin: miter"/>
   </g>
   <g id="patch_20">
    <path d="M 272.062446 70.822228 
C 266.786187 68.66664 261.350605 66.923795 255.804636 65.609377 
C 250.258668 64.294959 244.619019 63.412935 238.936556 62.971257 
L 233.915052 127.5764 
C 236.25489 127.758268 238.577099 128.121454 240.860732 128.662685 
C 243.144367 129.203915 245.382547 129.921558 247.555125 130.809153 
z
" style="fill: #980e01; fill-opacity: 0.75; stroke: #ffffff; stroke-width: 0.5; stroke-linejoin: miter"/>
   </g>
   <g id="patch_21">
    <path d="M 238.936556 62.971257 
C 237.516609 62.860888 236.094656 62.778071 234.671498 62.722844 
C 233.24834 62.667617 231.824244 62.64 230.400015 62.64 
L 230.400006 127.44 
C 230.986454 127.44 231.572846 127.451372 232.158852 127.474112 
C 232.744858 127.496853 233.330368 127.530954 233.915052 127.5764 
z
" style="fill: #7e0502; fill-opacity: 0.75; stroke: #ffffff; stroke-width: 0.5; stroke-linejoin: miter"/>
   </g>
   <g id="matplotlib.axis_1"/>
   <g id="matplotlib.axis_2"/>
   <g id="text_1">
    <!-- 3 -->
    <g style="fill: #ffffff" transform="translate(173.062788 35.507598) scale(0.1 -0.1)">
     <defs>
      <path id="DejaVuSans-33" d="M 2597 2516 
Q 3050 2419 3304 2112 
Q 3559 1806 3559 1356 
Q 3559 666 3084 287 
Q 2609 -91 1734 -91 
Q 1441 -91 1130 -33 
Q 819 25 488 141 
L 488 750 
Q 750 597 1062 519 
Q 1375 441 1716 441 
Q 2309 441 2620 675 
Q 2931 909 2931 1356 
Q 2931 1769 2642 2001 
Q 2353 2234 1838 2234 
L 1294 2234 
L 1294 2753 
L 1863 2753 
Q 2328 2753 2575 2939 
Q 2822 3125 2822 3475 
Q 2822 3834 2567 4026 
Q 2313 4219 1838 4219 
Q 1578 4219 1281 4162 
Q 984 4106 628 3988 
L 628 4550 
Q 988 4650 1302 4700 
Q 1616 4750 1894 4750 
Q 2613 4750 3031 4423 
Q 3450 4097 3450 3541 
Q 3450 3153 3228 2886 
Q 3006 2619 2597 2516 
z
" transform="scale(0.015625)"/>
     </defs>
     <use xlink:href="#DejaVuSans-33"/>
    </g>
   </g>
   <g id="text_2">
    <!-- 4 -->
    <g style="fill: #ffffff" transform="translate(118.650305 70.172181) scale(0.1 -0.1)">
     <defs>
      <path id="DejaVuSans-34" d="M 2419 4116 
L 825 1625 
L 2419 1625 
L 2419 4116 
z
M 2253 4666 
L 3047 4666 
L 3047 1625 
L 3713 1625 
L 3713 1100 
L 3047 1100 
L 3047 0 
L 2419 0 
L 2419 1100 
L 313 1100 
L 313 1709 
L 2253 4666 
z
" transform="scale(0.015625)"/>
     </defs>
     <use xlink:href="#DejaVuSans-34"/>
    </g>
   </g>
   <g id="text_3">
    <!-- 5 -->
    <g style="fill: #ffffff" transform="translate(77.261749 149.678869) scale(0.1 -0.1)">
     <defs>
      <path id="DejaVuSans-35" d="M 691 4666 
L 3169 4666 
L 3169 4134 
L 1269 4134 
L 1269 2991 
Q 1406 3038 1543 3061 
Q 1681 3084 1819 3084 
Q 2600 3084 3056 2656 
Q 3513 2228 3513 1497 
Q 3513 744 3044 326 
Q 2575 -91 1722 -91 
Q 1428 -91 1123 -41 
Q 819 9 494 109 
L 494 744 
Q 775 591 1075 516 
Q 1375 441 1709 441 
Q 2250 441 2565 725 
Q 2881 1009 2881 1497 
Q 2881 1984 2565 2268 
Q 2250 2553 1709 2553 
Q 1456 2553 1204 2497 
Q 953 2441 691 2322 
L 691 4666 
z
" transform="scale(0.015625)"/>
     </defs>
     <use xlink:href="#DejaVuSans-35"/>
    </g>
   </g>
   <g id="text_4">
    <!-- 6 -->
    <g style="fill: #ffffff" transform="translate(101.951076 261.045203) scale(0.1 -0.1)">
     <defs>
      <path id="DejaVuSans-36" d="M 2113 2584 
Q 1688 2584 1439 2293 
Q 1191 2003 1191 1497 
Q 1191 994 1439 701 
Q 1688 409 2113 409 
Q 2538 409 2786 701 
Q 3034 994 3034 1497 
Q 3034 2003 2786 2293 
Q 2538 2584 2113 2584 
z
M 3366 4563 
L 3366 3988 
Q 3128 4100 2886 4159 
Q 2644 4219 2406 4219 
Q 1781 4219 1451 3797 
Q 1122 3375 1075 2522 
Q 1259 2794 1537 2939 
Q 1816 3084 2150 3084 
Q 2853 3084 3261 2657 
Q 3669 2231 3669 1497 
Q 3669 778 3244 343 
Q 2819 -91 2113 -91 
Q 1303 -91 875 529 
Q 447 1150 447 2328 
Q 447 3434 972 4092 
Q 1497 4750 2381 4750 
Q 2619 4750 2861 4703 
Q 3103 4656 3366 4563 
z
" transform="scale(0.015625)"/>
     </defs>
     <use xlink:href="#DejaVuSans-36"/>
    </g>
   </g>
   <g id="text_5">
    <!-- 7 -->
    <g style="fill: #ffffff" transform="translate(230.400002 324.599375) scale(0.1 -0.1)">
     <defs>
      <path id="DejaVuSans-37" d="M 525 4666 
L 3525 4666 
L 3525 4397 
L 1831 0 
L 1172 0 
L 2766 4134 
L 525 4134 
L 525 4666 
z
" transform="scale(0.015625)"/>
     </defs>
     <use xlink:href="#DejaVuSans-37"/>
    </g>
   </g>
   <g id="text_6">
    <!-- 8 -->
    <g style="fill: #ffffff" transform="translate(352.486446 261.045171) scale(0.1 -0.1)">
     <defs>
      <path id="DejaVuSans-38" d="M 2034 2216 
Q 1584 2216 1326 1975 
Q 1069 1734 1069 1313 
Q 1069 891 1326 650 
Q 1584 409 2034 409 
Q 2484 409 2743 651 
Q 3003 894 3003 1313 
Q 3003 1734 2745 1975 
Q 2488 2216 2034 2216 
z
M 1403 2484 
Q 997 2584 770 2862 
Q 544 3141 544 3541 
Q 544 4100 942 4425 
Q 1341 4750 2034 4750 
Q 2731 4750 3128 4425 
Q 3525 4100 3525 3541 
Q 3525 3141 3298 2862 
Q 3072 2584 2669 2484 
Q 3125 2378 3379 2068 
Q 3634 1759 3634 1313 
Q 3634 634 3220 271 
Q 2806 -91 2034 -91 
Q 1263 -91 848 271 
Q 434 634 434 1313 
Q 434 1759 690 2068 
Q 947 2378 1403 2484 
z
M 1172 3481 
Q 1172 3119 1398 2916 
Q 1625 2713 2034 2713 
Q 2441 2713 2670 2916 
Q 2900 3119 2900 3481 
Q 2900 3844 2670 4047 
Q 2441 4250 2034 4250 
Q 1625 4250 1398 4047 
Q 1172 3844 1172 3481 
z
" transform="scale(0.015625)"/>
     </defs>
     <use xlink:href="#DejaVuSans-38"/>
    </g>
   </g>
   <g id="text_7">
    <!-- 9 -->
    <g style="fill: #ffffff" transform="translate(377.175744 149.67883) scale(0.1 -0.1)">
     <defs>
      <path id="DejaVuSans-39" d="M 703 97 
L 703 672 
Q 941 559 1184 500 
Q 1428 441 1663 441 
Q 2288 441 2617 861 
Q 2947 1281 2994 2138 
Q 2813 1869 2534 1725 
Q 2256 1581 1919 1581 
Q 1219 1581 811 2004 
Q 403 2428 403 3163 
Q 403 3881 828 4315 
Q 1253 4750 1959 4750 
Q 2769 4750 3195 4129 
Q 3622 3509 3622 2328 
Q 3622 1225 3098 567 
Q 2575 -91 1691 -91 
Q 1453 -91 1209 -44 
Q 966 3 703 97 
z
M 1959 2075 
Q 2384 2075 2632 2365 
Q 2881 2656 2881 3163 
Q 2881 3666 2632 3958 
Q 2384 4250 1959 4250 
Q 1534 4250 1286 3958 
Q 1038 3666 1038 3163 
Q 1038 2656 1286 2365 
Q 1534 2075 1959 2075 
z
" transform="scale(0.015625)"/>
     </defs>
     <use xlink:href="#DejaVuSans-39"/>
    </g>
   </g>
   <g id="text_8">
    <!-- 10 -->
    <g style="fill: #ffffff" transform="translate(335.787193 70.172178) scale(0.1 -0.1)">
     <defs>
      <path id="DejaVuSans-31" d="M 794 531 
L 1825 531 
L 1825 4091 
L 703 3866 
L 703 4441 
L 1819 4666 
L 2450 4666 
L 2450 531 
L 3481 531 
L 3481 0 
L 794 0 
L 794 531 
z
" transform="scale(0.015625)"/>
      <path id="DejaVuSans-30" d="M 2034 4250 
Q 1547 4250 1301 3770 
Q 1056 3291 1056 2328 
Q 1056 1369 1301 889 
Q 1547 409 2034 409 
Q 2525 409 2770 889 
Q 3016 1369 3016 2328 
Q 3016 3291 2770 3770 
Q 2525 4250 2034 4250 
z
M 2034 4750 
Q 2819 4750 3233 4129 
Q 3647 3509 3647 2328 
Q 3647 1150 3233 529 
Q 2819 -91 2034 -91 
Q 1250 -91 836 529 
Q 422 1150 422 2328 
Q 422 3509 836 4129 
Q 1250 4750 2034 4750 
z
" transform="scale(0.015625)"/>
     </defs>
     <use xlink:href="#DejaVuSans-31"/>
     <use xlink:href="#DejaVuSans-30" transform="translate(63.623047 0)"/>
    </g>
   </g>
   <g id="text_9">
    <!-- 11 -->
    <g style="fill: #ffffff" transform="translate(281.374558 35.507542) scale(0.1 -0.1)">
     <use xlink:href="#DejaVuSans-31"/>
     <use xlink:href="#DejaVuSans-31" transform="translate(63.623047 0)"/>
    </g>
   </g>
   <g id="text_10">
    <!-- -3 -->
    <g style="fill: #ffffff" transform="translate(202.64644 100.525938) scale(0.1 -0.1)">
     <defs>
      <path id="DejaVuSans-2d" d="M 313 2009 
L 1997 2009 
L 1997 1497 
L 313 1497 
L 313 2009 
z
" transform="scale(0.015625)"/>
     </defs>
     <use xlink:href="#DejaVuSans-2d"/>
     <use xlink:href="#DejaVuSans-33" transform="translate(36.083984 0)"/>
    </g>
   </g>
   <g id="text_11">
    <!-- -2 -->
    <g style="fill: #ffffff" transform="translate(166.434525 120.506827) scale(0.1 -0.1)">
     <defs>
      <path id="DejaVuSans-32" d="M 1228 531 
L 3431 531 
L 3431 0 
L 469 0 
L 469 531 
Q 828 903 1448 1529 
Q 2069 2156 2228 2338 
Q 2531 2678 2651 2914 
Q 2772 3150 2772 3378 
Q 2772 3750 2511 3984 
Q 2250 4219 1831 4219 
Q 1534 4219 1204 4116 
Q 875 4013 500 3803 
L 500 4441 
Q 881 4594 1212 4672 
Q 1544 4750 1819 4750 
Q 2544 4750 2975 4387 
Q 3406 4025 3406 3419 
Q 3406 3131 3298 2873 
Q 3191 2616 2906 2266 
Q 2828 2175 2409 1742 
Q 1991 1309 1228 531 
z
" transform="scale(0.015625)"/>
     </defs>
     <use xlink:href="#DejaVuSans-2d"/>
     <use xlink:href="#DejaVuSans-32" transform="translate(36.083984 0)"/>
    </g>
   </g>
   <g id="text_12">
    <!-- -1 -->
    <g style="fill: #ffffff" transform="translate(145.065522 191.884297) scale(0.1 -0.1)">
     <use xlink:href="#DejaVuSans-2d"/>
     <use xlink:href="#DejaVuSans-31" transform="translate(36.083984 0)"/>
    </g>
   </g>
   <g id="text_13">
    <!-- 0 -->
    <g style="fill: #ffffff" transform="translate(230.400001 252.671375) scale(0.1 -0.1)">
     <use xlink:href="#DejaVuSans-30"/>
    </g>
   </g>
   <g id="text_14">
    <!-- 1 -->
    <g style="fill: #ffffff" transform="translate(305.764174 191.88426) scale(0.1 -0.1)">
     <use xlink:href="#DejaVuSans-31"/>
    </g>
   </g>
   <g id="text_15">
    <!-- 2 -->
    <g style="fill: #ffffff" transform="translate(284.395121 120.506787) scale(0.1 -0.1)">
     <use xlink:href="#DejaVuSans-32"/>
    </g>
   </g>
   <g id="text_16">
    <!-- 3 -->
    <g style="fill: #ffffff" transform="translate(248.18321 100.525929) scale(0.1 -0.1)">
     <use xlink:href="#DejaVuSans-33"/>
    </g>
   </g>
  </g>
 </g>
</svg>
