<?xml version="1.0" encoding="utf-8" standalone="no"?>
<!DOCTYPE svg PUBLIC "-//W3C//DTD SVG 1.1//EN"
  "http://www.w3.org/Graphics/SVG/1.1/DTD/svg11.dtd">
<svg xmlns:xlink="http://www.w3.org/1999/xlink" width="460.8pt" height="345.6pt" viewBox="0 0 460.8 345.6" xmlns="http://www.w3.org/2000/svg" version="1.1">
 <metadata>
  <rdf:RDF xmlns:dc="http://purl.org/dc/elements/1.1/" xmlns:cc="http://creativecommons.org/ns#" xmlns:rdf="http://www.w3.org/1999/02/22-rdf-syntax-ns#">
   <cc:Work>
    <dc:type rdf:resource="http://purl.org/dc/dcmitype/StillImage"/>
    <dc:format>image/svg+xml</dc:format>
    <dc:creator>
     <cc:Agent>
      <dc:title>Matplotlib, https://matplotlib.org/</dc:title>
     </cc:Agent>
    </dc:creator>
   </cc:Work>
  </rdf:RDF>
 </metadata>
 <defs>
  <style type="text/css">*{stroke-linejoin: round; stroke-linecap: butt}</style>
 </defs>
 <g id="figure_1">
  <g id="patch_1">
   <path d="M 0 345.6 
L 460.8 345.6 
L 460.8 0 
L 0 0 
L 0 345.6 
z
" style="fill: none"/>
  </g>
  <g id="axes_1">
   <g id="patch_2">
    <path d="M 230.4 43.2 
C 226.629488 43.2 222.860771 43.364546 219.104607 43.693168 
C 215.348443 44.02179 211.608409 44.514175 207.895179 45.168918 
L 225.899036 147.273784 
C 226.641682 147.142835 227.389689 147.044358 228.140921 146.978634 
C 228.892154 146.912909 229.645898 146.88 230.4 146.88 
z
" style="fill: #333d99; fill-opacity: 0.75; stroke: #ffffff; stroke-width: 0.5; stroke-linejoin: miter"/>
   </g>
   <g id="patch_3">
    <path d="M 207.895181 45.168918 
C 196.741385 47.135635 185.893378 50.555997 175.628664 55.342515 
C 165.363947 60.129032 155.770812 66.240539 147.094699 73.520664 
L 213.73894 152.944133 
C 215.474162 151.488108 217.392789 150.265806 219.445733 149.308503 
C 221.498676 148.351199 223.668277 147.667127 225.899036 147.273784 
z
" style="fill: #3e60aa; fill-opacity: 0.75; stroke: #ffffff; stroke-width: 0.5; stroke-linejoin: miter"/>
   </g>
   <g id="patch_4">
    <path d="M 147.094699 73.520664 
C 132.598079 85.684777 120.940123 100.877723 112.942499 118.028695 
C 104.944876 135.179664 100.8 153.876013 100.8 172.800011 
L 204.48 172.800002 
C 204.48 169.015203 205.308975 165.275933 206.9085 161.845739 
C 208.508025 158.415545 210.839616 155.376955 213.73894 152.944133 
z
" style="fill: #6ba2cb; fill-opacity: 0.75; stroke: #ffffff; stroke-width: 0.5; stroke-linejoin: miter"/>
   </g>
   <g id="patch_5">
    <path d="M 100.8 172.800011 
C 100.8 199.392773 108.984895 225.351957 124.23787 247.135477 
C 139.490845 268.918997 161.085124 285.488874 186.074142 294.584148 
L 221.534828 197.15683 
C 216.537025 195.337775 212.218169 192.023799 209.167574 187.667095 
C 206.116979 183.310391 204.48 178.118555 204.48 172.800002 
z
" style="fill: #c3e5f0; fill-opacity: 0.75; stroke: #ffffff; stroke-width: 0.5; stroke-linejoin: miter"/>
   </g>
   <g id="patch_6">
    <path d="M 186.074142 294.584148 
C 202.066693 300.404964 219.050322 303.019001 236.053042 302.276651 
C 253.055763 301.534301 269.746878 297.450011 285.171262 290.257516 
C 300.595646 283.065021 314.453289 272.904186 325.951111 260.356531 
C 337.448932 247.808875 346.363339 233.118391 352.184155 217.125839 
L 254.756831 181.665168 
C 253.592668 184.863678 251.809786 187.801775 249.510222 190.311306 
C 247.210658 192.820837 244.439129 194.853004 241.354252 196.291503 
C 238.269376 197.730002 234.931153 198.54686 231.530608 198.69533 
C 228.130064 198.8438 224.733339 198.320993 221.534828 197.15683 
z
" style="fill: #feea9f; fill-opacity: 0.75; stroke: #ffffff; stroke-width: 0.5; stroke-linejoin: miter"/>
   </g>
   <g id="patch_7">
    <path d="M 352.184155 217.125839 
C 359.309638 197.548747 361.610567 176.53909 358.891257 155.883816 
C 356.17194 135.228542 348.511711 115.530291 336.562099 98.464484 
C 324.612487 81.398678 308.722196 67.463261 290.242653 57.843414 
C 271.763111 48.223567 251.233525 43.2 230.400018 43.2 
L 230.400004 146.88 
C 234.566705 146.88 238.672622 147.884713 242.368531 149.808683 
C 246.064439 151.732652 249.242497 154.519736 251.63242 157.932897 
C 254.022342 161.346058 255.554388 165.285708 256.098251 169.416763 
C 256.642113 173.547818 256.181928 177.749749 254.756831 181.665168 
z
" style="fill: #e65036; fill-opacity: 0.75; stroke: #ffffff; stroke-width: 0.5; stroke-linejoin: miter"/>
   </g>
   <g id="patch_8">
    <path d="M 230.4 62.64 
C 212.691517 62.64 195.241382 66.910021 179.533766 75.08689 
C 163.82615 83.263759 150.319369 95.10889 140.162202 109.614832 
C 130.005036 124.120773 123.493849 140.864271 121.182431 158.421256 
C 118.871014 175.978242 120.826809 193.836437 126.883471 210.476967 
L 187.775547 188.314045 
C 185.281627 181.462062 184.4763 174.108688 185.42806 166.879341 
C 186.37982 159.649994 189.060897 152.755613 193.24326 146.782578 
C 197.425623 140.809543 202.987238 135.932136 209.45508 132.56519 
C 215.922922 129.198244 223.108272 127.44 230.4 127.44 
z
" style="fill: #42ac5a; fill-opacity: 0.75; stroke: #ffffff; stroke-width: 0.5; stroke-linejoin: miter"/>
   </g>
   <g id="patch_9">
    <path d="M 126.883468 210.476966 
C 136.872186 237.920721 157.375629 260.296288 183.844381 272.638869 
C 210.313132 284.98145 240.633175 286.305244 268.07693 276.316539 
L 245.91403 215.424457 
C 234.61366 219.537453 222.128937 218.992362 211.230039 213.910123 
C 200.331141 208.827883 191.888547 199.614415 187.775546 188.314045 
z
" style="fill: #e5f49b; fill-opacity: 0.75; stroke: #ffffff; stroke-width: 0.5; stroke-linejoin: miter"/>
   </g>
   <g id="patch_10">
    <path d="M 268.07693 276.316539 
C 289.317612 268.585562 307.672768 254.50116 320.63781 235.985156 
C 333.602852 217.469151 340.56 195.403844 340.56 172.799981 
L 275.76 172.799992 
C 275.76 182.107465 272.895292 191.19318 267.556745 198.817417 
C 262.218199 206.441654 254.660193 212.241114 245.91403 215.424457 
z
" style="fill: #fdc574; fill-opacity: 0.75; stroke: #ffffff; stroke-width: 0.5; stroke-linejoin: miter"/>
   </g>
   <g id="patch_11">
    <path d="M 340.56 172.799981 
C 340.56 156.714593 337.036843 140.822672 330.238863 126.244362 
C 323.440882 111.666052 313.531633 98.752067 301.209519 88.412578 
L 259.556861 138.052238 
C 264.630672 142.309675 268.710952 147.627198 271.51012 153.630031 
C 274.309288 159.632865 275.76 166.176597 275.76 172.799992 
z
" style="fill: #ee613e; fill-opacity: 0.75; stroke: #ffffff; stroke-width: 0.5; stroke-linejoin: miter"/>
   </g>
   <g id="patch_12">
    <path d="M 301.209519 88.412578 
C 293.834823 82.224465 285.680645 77.029677 276.955635 72.961137 
C 268.230625 68.892598 259.009823 65.98529 249.529093 64.31358 
L 238.276685 128.129121 
C 242.180515 128.817472 245.977316 130.014599 249.569967 131.68988 
C 253.162619 133.365161 256.520221 135.504191 259.556861 138.052238 
z
" style="fill: #c62027; fill-opacity: 0.75; stroke: #ffffff; stroke-width: 0.5; stroke-linejoin: miter"/>
   </g>
   <g id="patch_13">
    <path d="M 249.529093 64.31358 
C 246.372852 63.757049 243.193826 63.338522 240.00109 63.059196 
C 236.808354 62.77987 233.604947 62.64 230.400015 62.64 
L 230.400006 127.44 
C 231.719684 127.44 233.038734 127.497594 234.35339 127.61261 
C 235.668046 127.727627 236.977057 127.899961 238.276685 128.129121 
z
" style="fill: #ab0626; fill-opacity: 0.75; stroke: #ffffff; stroke-width: 0.5; stroke-linejoin: miter"/>
   </g>
   <g id="matplotlib.axis_1"/>
   <g id="matplotlib.axis_2"/>
   <g id="text_1">
    <!-- 2 -->
    <g style="fill: #ffffff" transform="translate(161.050432 40.483282) scale(0.1 -0.1)">
     <defs>
      <path id="DejaVuSans-32" d="M 1228 531 
L 3431 531 
L 3431 0 
L 469 0 
L 469 531 
Q 828 903 1448 1529 
Q 2069 2156 2228 2338 
Q 2531 2678 2651 2914 
Q 2772 3150 2772 3378 
Q 2772 3750 2511 3984 
Q 2250 4219 1831 4219 
Q 1534 4219 1204 4116 
Q 875 4013 500 3803 
L 500 4441 
Q 881 4594 1212 4672 
Q 1544 4750 1819 4750 
Q 2544 4750 2975 4387 
Q 3406 4025 3406 3419 
Q 3406 3131 3298 2873 
Q 3191 2616 2906 2266 
Q 2828 2175 2409 1742 
Q 1991 1309 1228 531 
z
" transform="scale(0.015625)"/>
     </defs>
     <use xlink:href="#DejaVuSans-32"/>
    </g>
   </g>
   <g id="text_2">
    <!-- 3 -->
    <g style="fill: #ffffff" transform="translate(88.961376 112.572373) scale(0.1 -0.1)">
     <defs>
      <path id="DejaVuSans-33" d="M 2597 2516 
Q 3050 2419 3304 2112 
Q 3559 1806 3559 1356 
Q 3559 666 3084 287 
Q 2609 -91 1734 -91 
Q 1441 -91 1130 -33 
Q 819 25 488 141 
L 488 750 
Q 750 597 1062 519 
Q 1375 441 1716 441 
Q 2309 441 2620 675 
Q 2931 909 2931 1356 
Q 2931 1769 2642 2001 
Q 2353 2234 1838 2234 
L 1294 2234 
L 1294 2753 
L 1863 2753 
Q 2328 2753 2575 2939 
Q 2822 3125 2822 3475 
Q 2822 3834 2567 4026 
Q 2313 4219 1838 4219 
Q 1578 4219 1281 4162 
Q 984 4106 628 3988 
L 628 4550 
Q 988 4650 1302 4700 
Q 1616 4750 1894 4750 
Q 2613 4750 3031 4423 
Q 3450 4097 3450 3541 
Q 3450 3153 3228 2886 
Q 3006 2619 2597 2516 
z
" transform="scale(0.015625)"/>
     </defs>
     <use xlink:href="#DejaVuSans-33"/>
    </g>
   </g>
   <g id="text_3">
    <!-- 4 -->
    <g style="fill: #ffffff" transform="translate(101.951076 261.045203) scale(0.1 -0.1)">
     <defs>
      <path id="DejaVuSans-34" d="M 2419 4116 
L 825 1625 
L 2419 1625 
L 2419 4116 
z
M 2253 4666 
L 3047 4666 
L 3047 1625 
L 3713 1625 
L 3713 1100 
L 3047 1100 
L 3047 0 
L 2419 0 
L 2419 1100 
L 313 1100 
L 313 1709 
L 2253 4666 
z
" transform="scale(0.015625)"/>
     </defs>
     <use xlink:href="#DejaVuSans-34"/>
    </g>
   </g>
   <g id="text_4">
    <!-- 5 -->
    <g style="fill: #ffffff" transform="translate(293.387016 310.635492) scale(0.1 -0.1)">
     <defs>
      <path id="DejaVuSans-35" d="M 691 4666 
L 3169 4666 
L 3169 4134 
L 1269 4134 
L 1269 2991 
Q 1406 3038 1543 3061 
Q 1681 3084 1819 3084 
Q 2600 3084 3056 2656 
Q 3513 2228 3513 1497 
Q 3513 744 3044 326 
Q 2575 -91 1722 -91 
Q 1428 -91 1123 -41 
Q 819 9 494 109 
L 494 744 
Q 775 591 1075 516 
Q 1375 441 1709 441 
Q 2250 441 2565 725 
Q 2881 1009 2881 1497 
Q 2881 1984 2565 2268 
Q 2250 2553 1709 2553 
Q 1456 2553 1204 2497 
Q 953 2441 691 2322 
L 691 4666 
z
" transform="scale(0.015625)"/>
     </defs>
     <use xlink:href="#DejaVuSans-35"/>
    </g>
   </g>
   <g id="text_5">
    <!-- 6 -->
    <g style="fill: #ffffff" transform="translate(352.486416 90.073536) scale(0.1 -0.1)">
     <defs>
      <path id="DejaVuSans-36" d="M 2113 2584 
Q 1688 2584 1439 2293 
Q 1191 2003 1191 1497 
Q 1191 994 1439 701 
Q 1688 409 2113 409 
Q 2538 409 2786 701 
Q 3034 994 3034 1497 
Q 3034 2003 2786 2293 
Q 2538 2584 2113 2584 
z
M 3366 4563 
L 3366 3988 
Q 3128 4100 2886 4159 
Q 2644 4219 2406 4219 
Q 1781 4219 1451 3797 
Q 1122 3375 1075 2522 
Q 1259 2794 1537 2939 
Q 1816 3084 2150 3084 
Q 2853 3084 3261 2657 
Q 3669 2231 3669 1497 
Q 3669 778 3244 343 
Q 2819 -91 2113 -91 
Q 1303 -91 875 529 
Q 447 1150 447 2328 
Q 447 3434 972 4092 
Q 1497 4750 2381 4750 
Q 2619 4750 2861 4703 
Q 3103 4656 3366 4563 
z
" transform="scale(0.015625)"/>
     </defs>
     <use xlink:href="#DejaVuSans-36"/>
    </g>
   </g>
   <g id="text_6">
    <!-- 1 -->
    <g style="fill: #ffffff" transform="translate(160.871038 131.329762) scale(0.1 -0.1)">
     <defs>
      <path id="DejaVuSans-31" d="M 794 531 
L 1825 531 
L 1825 4091 
L 703 3866 
L 703 4441 
L 1819 4666 
L 2450 4666 
L 2450 531 
L 3481 531 
L 3481 0 
L 794 0 
L 794 531 
z
" transform="scale(0.015625)"/>
     </defs>
     <use xlink:href="#DejaVuSans-31"/>
    </g>
   </g>
   <g id="text_7">
    <!-- 2 -->
    <g style="fill: #ffffff" transform="translate(191.448568 245.446584) scale(0.1 -0.1)">
     <use xlink:href="#DejaVuSans-32"/>
    </g>
   </g>
   <g id="text_8">
    <!-- 3 -->
    <g style="fill: #ffffff" transform="translate(293.566466 219.788982) scale(0.1 -0.1)">
     <use xlink:href="#DejaVuSans-33"/>
    </g>
   </g>
   <g id="text_9">
    <!-- 4 -->
    <g style="fill: #ffffff" transform="translate(300.287203 142.970429) scale(0.1 -0.1)">
     <use xlink:href="#DejaVuSans-34"/>
    </g>
   </g>
   <g id="text_10">
    <!-- 5 -->
    <g style="fill: #ffffff" transform="translate(262.98891 105.672155) scale(0.1 -0.1)">
     <use xlink:href="#DejaVuSans-35"/>
    </g>
   </g>
  </g>
 </g>
</svg>
